<svg width="180" height="26" viewBox="0 0 180 26" fill="none" xmlns="http://www.w3.org/2000/svg">
<path d="M16.6172 8.86062C16.5872 8.3507 16.5572 8.11074 16.4672 7.7808C15.9573 6.01109 14.3076 4.7213 12.3879 4.7213H4.1693V21.3385H8.33861V25.4478H0V0.552002H12.3879C16.5872 0.552002 20.0367 3.61149 20.6366 7.63082C20.6965 8.02076 20.7265 8.41069 20.7265 8.86062H16.6172Z" fill="#02A3D5"/>
<path d="M20.7564 13V17.1093C20.7564 21.6985 16.887 25.4479 12.2978 25.4479H12.4778V21.3086H12.2378C14.5774 21.3086 16.5871 19.3889 16.5871 17.0493V13H20.7564Z" fill="#02A3D5"/>
<path d="M55.2507 10.8703C55.2507 9.0706 53.871 8.05077 52.0713 8.05077H48.8918V17.7691H52.0713C53.841 17.7691 55.2507 16.7493 55.2507 14.9496V10.8703ZM45.6523 20.7386V5.05127H52.1013C56.2106 5.05127 58.5502 7.39087 58.5502 10.8403V14.9496C58.5502 18.429 56.2106 20.7386 52.1013 20.7386H45.6523Z" fill="#0C2A31"/>
<path d="M71.7776 10.6303C71.7776 8.80061 70.3978 7.81078 68.5981 7.81078C66.8284 7.81078 65.4187 8.83061 65.4187 10.6303V15.1595C65.4187 16.9592 66.7984 17.9791 68.5981 17.9791C70.3678 17.9791 71.7776 16.9592 71.7776 15.1595V10.6303ZM68.6281 20.9486C64.5188 20.9486 62.1792 18.609 62.1792 15.1595V10.6303C62.1792 7.15089 64.5188 4.81128 68.6281 4.81128C72.7374 4.81128 75.077 7.15089 75.077 10.6303V15.1595C75.047 18.639 72.7074 20.9486 68.6281 20.9486Z" fill="#0C2A31"/>
<path d="M87.5556 11.9501L84.7961 20.7386H81.2567L78.1372 5.05127H81.4067L83.3863 15.6695L86.5658 5.05127H88.5755L91.7549 15.6695L93.7346 5.05127H97.0041L93.8546 20.7386H90.3452L87.5556 11.9501Z" fill="#0C2A31"/>
<path d="M112.841 5.05127H116.11V16.2394C116.11 19.3589 114.221 20.9486 111.041 20.9486C107.862 20.9486 105.972 19.3589 105.972 16.2394H109.272C109.362 17.3492 109.991 17.9491 111.041 17.9491C112.301 17.9491 112.841 17.1692 112.841 16.1494V5.05127Z" fill="#0C2A31"/>
<path d="M129.698 10.6303C129.698 8.80061 128.318 7.81078 126.519 7.81078C124.749 7.81078 123.339 8.83061 123.339 10.6303V15.1595C123.339 16.9592 124.719 17.9791 126.519 17.9791C128.288 17.9791 129.698 16.9592 129.698 15.1595V10.6303ZM126.519 20.9486C122.409 20.9486 120.07 18.609 120.07 15.1595V10.6303C120.07 7.15089 122.409 4.81128 126.519 4.81128C130.628 4.81128 132.968 7.15089 132.968 10.6303V15.1595C132.968 18.639 130.628 20.9486 126.519 20.9486Z" fill="#0C2A31"/>
<path d="M149.825 20.7386H146.556L140.227 10.6303V20.7386H136.958V5.05127H140.227L146.556 15.1596V5.05127H149.825V20.7386Z" fill="#0C2A31"/>
<path d="M157.414 11.3202H163.772V14.3197H157.414V17.7691H164.522V20.7386H154.144V5.05127H164.522V8.05077H157.414V11.3202Z" fill="#0C2A31"/>
<path d="M167.972 15.7895H171.332C171.512 17.1093 172.651 17.9791 174.271 17.9791C175.711 17.9791 176.701 17.4992 176.701 16.4194C176.701 15.5495 176.131 15.0396 174.931 14.7697L172.051 14.0498C169.442 13.3899 168.152 11.7102 168.152 9.40055C168.152 6.25108 170.822 4.84131 173.821 4.84131C177.241 4.84131 179.34 6.671 179.73 9.34056H176.371C176.071 8.29073 174.871 7.81082 173.791 7.81082C172.411 7.81082 171.452 8.29074 171.452 9.40055C171.452 10.3304 172.231 10.7203 173.161 10.9603L175.951 11.6502C178.59 12.3101 180 13.7798 180 16.4194C180 19.2389 177.99 20.9786 174.301 20.9786C170.552 20.9486 168.122 18.909 167.972 15.7895Z" fill="#0C2A31"/>
</svg>
