<svg width="180" height="24" viewBox="0 0 180 24" fill="none" xmlns="http://www.w3.org/2000/svg">
<path d="M7.08331 0.597393C8.70982 0.467394 10.3477 0.487364 11.978 0.499502C11.9803 1.97022 11.9803 3.43938 11.978 4.9099C11.0496 4.94592 10.0895 4.81828 9.18308 5.05674C8.52884 5.27406 8.56973 6.08382 8.57277 6.64375C9.65862 6.64982 10.7422 6.64219 11.8258 6.64826C11.8228 8.16107 11.8258 9.67447 11.8228 11.1873C10.7854 11.1911 9.74798 11.1873 8.70982 11.1903C8.69922 15.1243 8.71209 19.0591 8.70377 22.9939C6.65018 22.9901 4.59735 22.9954 2.543 22.9916C2.54149 19.0568 2.543 15.1243 2.54149 11.1903C1.70173 11.1857 0.861203 11.1911 0.0206933 11.1873C0.0199373 9.67447 0.0176693 8.16264 0.0206933 6.64983C0.861203 6.63612 1.70249 6.66275 2.54527 6.62927C2.51194 5.25566 2.58692 3.77887 3.37444 2.6026C4.19754 1.37054 5.64685 0.71134 7.08331 0.597393Z" fill="#2F5B9C"/>
<path d="M13.3147 0.503352C15.3668 0.494933 17.4188 0.505505 19.4725 0.497869C19.4808 1.95939 19.48 3.41934 19.4738 4.88086C17.4212 4.87694 15.3683 4.88321 13.3147 4.87773C13.3139 3.41934 13.3139 1.96174 13.3147 0.503352Z" fill="#2F5B9C"/>
<path d="M173.681 1.47684C174.345 1.47312 175.014 1.47312 175.682 1.47684C175.684 3.13649 175.68 4.79516 175.682 6.45481C176.787 6.45638 177.893 6.45481 178.998 6.45481C179.023 7.02219 179.023 7.59055 178.997 8.15793C177.891 8.15636 176.787 8.15636 175.682 8.15636C175.682 11.8733 175.678 15.5885 175.684 19.3054C175.705 19.9845 175.674 20.8579 176.335 21.2594C177.158 21.7052 178.128 21.462 179.017 21.4353C179.021 22.0127 179.02 22.5885 178.998 23.166C177.657 23.1774 176.219 23.4145 174.963 22.8065C173.914 22.2735 173.708 20.971 173.689 19.9019C173.666 15.9862 173.687 12.0721 173.678 8.15636C172.725 8.15636 171.773 8.16028 170.823 8.15499C170.819 7.58898 170.819 7.02219 170.823 6.45716C171.773 6.45325 172.725 6.45716 173.678 6.45481C173.681 4.79516 173.678 3.13649 173.681 1.47684Z" fill="#2F5B9C"/>
<path d="M144.973 6.83781C146.609 5.83364 148.649 5.80232 150.461 6.26123C151.646 6.56626 152.733 7.32884 153.302 8.43932C154.113 9.96584 154.069 11.7485 154.077 13.4302C154.077 16.6308 154.077 19.8314 154.077 23.032C153.411 23.0358 152.744 23.0335 152.079 23.0335C152.074 20.2826 152.078 17.5294 152.078 14.7762C152.045 13.2008 152.212 11.571 151.693 10.0545C151.356 9.03587 150.533 8.19145 149.503 7.897C147.82 7.40911 145.846 7.70513 144.534 8.93093C143.315 10.0651 142.781 11.7798 142.769 13.4225C142.764 16.627 142.769 19.8291 142.768 23.032C142.102 23.0335 141.433 23.0335 140.769 23.0335C140.765 17.5087 140.766 11.9825 140.766 6.45702C141.433 6.45467 142.099 6.45467 142.766 6.45623C142.777 7.43358 142.751 8.40858 142.783 9.38534C143.228 8.32987 143.98 7.40911 144.973 6.83781Z" fill="#2F5B9C"/>
<path d="M30.098 6.54273C32.0282 6.00511 34.2801 6.1077 35.9255 7.36267C37.241 8.33473 37.8921 10.0003 37.8997 11.6133C37.9164 15.405 37.9057 19.1983 37.9057 22.9916C35.8559 22.9954 33.8077 22.9901 31.7585 22.9939C31.739 20.0036 31.7752 17.0133 31.7335 14.0246C31.6942 13.1336 31.667 12.0056 30.8234 11.4779C29.8701 10.9847 28.5246 11.1735 27.8635 12.0744C27.325 12.801 27.2638 13.7477 27.2502 14.6234C27.2471 17.4125 27.2547 20.2024 27.2455 22.9916C25.1942 22.9916 23.1421 22.9939 21.0893 22.9916C21.0848 17.5448 21.0872 12.0958 21.0872 6.64983C23.0702 6.64376 25.0541 6.64669 27.0358 6.64826C27.0358 7.35797 27.0306 8.0669 27.0426 8.7774C27.7998 7.73583 28.8487 6.88379 30.098 6.54273Z" fill="#2F5B9C"/>
<path d="M66.0632 6.54039C67.9806 6.01119 70.2106 6.10536 71.8521 7.33664C73.2296 8.33317 73.8831 10.0807 73.8649 11.7509C73.8717 15.4968 73.8717 19.2442 73.8649 22.9916C71.8114 22.9916 69.757 22.9939 67.7026 22.9916C67.6935 19.9539 67.7164 16.9154 67.6927 13.8778C67.652 13.0709 67.5997 12.1081 66.9167 11.5658C65.8256 10.847 64.0922 11.2385 63.5713 12.5012C63.1995 13.3042 63.2191 14.2143 63.2154 15.08C63.2154 17.7169 63.2191 20.3531 63.2154 22.9916C61.1602 22.9916 59.1052 22.9954 57.0485 22.9901C57.0485 17.5426 57.0485 12.0951 57.0485 6.64826C59.0271 6.64219 61.0043 6.6514 62.983 6.64219C63.0078 7.35504 62.9775 8.06926 63.0078 8.78132C63.7589 7.73055 64.8146 6.88457 66.0632 6.54039Z" fill="#2F5B9C"/>
<path d="M119.046 6.54038C120.415 6.16644 121.906 6.09772 123.267 6.54743C124.312 6.89456 125.243 7.61347 125.8 8.5779C126.397 9.57286 126.591 10.7581 126.587 11.9077C126.586 15.6008 126.587 19.2962 126.586 22.9901C124.621 22.9939 122.652 22.9939 120.687 22.9916C120.677 19.9516 120.699 16.9116 120.676 13.8716C120.636 13.0174 120.566 11.9559 119.756 11.4695C118.805 10.9923 117.478 11.1735 116.822 12.0614C116.3 12.7474 116.216 13.6498 116.201 14.4857C116.197 17.3215 116.206 20.1566 116.197 22.9916C114.143 22.9901 112.089 22.9954 110.035 22.9901C110.035 17.5448 110.033 12.0958 110.035 6.64826C112.017 6.64376 113.999 6.64669 115.983 6.64826C115.985 7.35797 115.979 8.06925 115.989 8.77818C116.746 7.73348 117.794 6.88379 119.046 6.54038Z" fill="#2F5B9C"/>
<path d="M13.3147 6.64826C15.3683 6.64376 17.4217 6.64826 19.4769 6.6467C19.4769 12.0958 19.4808 17.5448 19.4738 22.9939C17.4212 22.9901 15.3683 22.9954 13.3147 22.9916C13.3139 17.5448 13.3139 12.0958 13.3147 6.64826Z" fill="#2F5B9C"/>
<path d="M75.7392 6.64835C80.6718 6.64463 85.6028 6.64463 90.5353 6.64835C90.5324 8.24672 90.5459 9.84744 90.5277 11.4466C88.0637 13.7746 85.6127 16.1148 83.1601 18.4566C85.8367 18.4604 88.5128 18.4566 91.1887 18.4589C91.1918 19.9693 91.1918 21.482 91.1874 22.9917C85.8094 22.994 80.4332 22.994 75.0562 22.9917C75.0508 21.3918 75.0615 19.7934 75.0494 18.1927C77.5565 15.8372 80.1031 13.5238 82.6192 11.1797C80.3256 11.1759 78.0336 11.1812 75.7399 11.1782C75.7399 9.6685 75.7423 8.15803 75.7392 6.64835Z" fill="#2F5B9C"/>
<path fill-rule="evenodd" clip-rule="evenodd" d="M165.093 6.13585C162.921 5.70689 160.487 6.13428 158.814 7.6655C157.057 9.2623 156.266 11.6835 156.141 14.0131C156.025 16.3648 156.409 18.8602 157.797 20.8081C158.834 22.2826 160.521 23.2133 162.283 23.4275C164.269 23.6684 166.452 23.4183 168.072 22.1465C169.498 21.0414 170.267 19.3038 170.66 17.5754C169.992 17.5716 169.328 17.5716 168.663 17.5731C168.294 18.9329 167.603 20.2919 166.386 21.0513C164.398 22.252 161.537 22.07 159.917 20.3171C158.664 18.9772 158.159 17.0974 158.115 15.2902C159.516 15.2902 160.918 15.2905 162.319 15.2907C165.122 15.2913 167.924 15.2918 170.726 15.2902C170.781 13.0403 170.376 10.6854 169.091 8.80104C168.171 7.42762 166.708 6.44107 165.093 6.13585ZM166.66 8.83317C164.966 7.32349 162.196 7.29294 160.46 8.74918C159.027 9.92466 158.315 11.7761 158.117 13.5886C159.295 13.5886 160.474 13.5891 161.654 13.5895C164.012 13.5903 166.372 13.5912 168.729 13.5886C168.654 11.8243 168.014 10.0049 166.66 8.83317Z" fill="#2F5B9C"/>
<path fill-rule="evenodd" clip-rule="evenodd" d="M102.898 6.58172C100.565 6.05174 98.0045 6.05037 95.8274 7.15224C93.6708 8.21847 92.083 10.3177 91.5431 12.671C91.0426 14.8643 91.2607 17.2734 92.3517 19.258C93.4194 21.2082 95.3897 22.5389 97.5123 23.0551C99.8521 23.621 102.398 23.5178 104.623 22.5442C106.451 21.7397 108.034 20.1964 108.621 18.2408C106.72 18.2332 104.817 18.2309 102.916 18.2408C102.01 19.4301 100.247 19.6649 98.9321 19.1104C97.8128 18.6232 97.2677 17.3881 97.164 16.2233C99.4855 16.2189 101.807 16.2196 104.129 16.2204C105.754 16.221 107.38 16.2215 109.005 16.2203C108.988 14.0208 108.693 11.728 107.528 9.82213C106.528 8.13507 104.775 7.01088 102.898 6.58172ZM102.228 10.9486C101.276 10.0516 99.7653 10.0623 98.6536 10.6358C97.7943 11.094 97.3589 12.0461 97.1961 12.9753C98.8203 12.9829 100.446 12.9806 102.07 12.9782C102.413 12.9777 102.756 12.9773 103.099 12.9769C103.059 12.2251 102.798 11.4572 102.228 10.9486Z" fill="#2F5B9C"/>
<path d="M129.593 14.2563C130.645 13.0418 132.263 12.3474 133.86 12.4437C136.199 12.5447 138.374 14.3992 138.766 16.7433C139.101 17.7283 138.722 18.7394 138.531 19.7091C138.028 21.0834 136.926 22.2443 135.571 22.7736C134.592 23.2271 133.477 23.0206 132.437 23.0282C130.467 22.6382 128.708 20.948 128.451 18.9023C128.199 18.3172 128.223 17.671 128.284 17.0492C128.507 16.0382 128.881 15.0264 129.593 14.2563Z" fill="#B92D2E"/>
<path fill-rule="evenodd" clip-rule="evenodd" d="M46.4048 6.28106C44.5617 6.40343 42.5922 6.71473 41.1263 7.94444C40.0555 8.82546 39.5482 10.2212 39.4958 11.5841C41.3996 11.5917 43.3032 11.5925 45.2054 11.5841C45.2766 11.0259 45.5439 10.4591 46.077 10.2183C46.9311 9.83589 47.9761 9.79459 48.8271 10.2143C49.523 10.5478 49.7692 11.5214 49.3503 12.1646C49.0423 12.6173 48.4759 12.7511 47.9754 12.8544C47.442 12.9472 46.9056 13.0227 46.3693 13.0981C45.832 13.1737 45.2948 13.2493 44.7609 13.3423C43.1026 13.6138 41.3337 13.9824 40.0555 15.164C38.9181 16.1949 38.6008 17.8598 38.8152 19.3343C38.9726 20.5939 39.6868 21.7793 40.7657 22.4485C42.2568 23.4045 44.1104 23.5024 45.8209 23.3188C47.2794 23.162 48.7091 22.5326 49.6942 21.4145C49.7138 21.9476 49.7857 22.4776 49.9259 22.9938C50.7799 22.992 51.6339 22.9922 52.4878 22.9924C53.4834 22.9926 54.479 22.9928 55.4748 22.99C55.4739 21.6626 55.4744 20.335 55.4749 19.0073C55.4757 16.6898 55.4765 14.372 55.4703 12.0552C55.4422 10.8446 55.4036 9.54222 54.7116 8.50203C54.0452 7.48102 52.8859 6.93341 51.7471 6.64816C50.0038 6.21606 48.1888 6.19551 46.4048 6.28106ZM47.5326 16.3333C46.9778 16.4751 46.4231 16.6169 45.8938 16.835C45.0587 17.1524 44.7521 18.3416 45.3586 19.0131C46.3975 20.1947 48.5821 19.8215 49.2432 18.4067C49.5809 17.7387 49.5688 16.9915 49.5569 16.2558C49.5536 16.0548 49.5504 15.8547 49.5543 15.6573C48.9125 15.9807 48.2224 16.1571 47.5326 16.3333Z" fill="#2F5B9C"/>
</svg>
