<svg width="54" height="60" viewBox="0 0 54 60" fill="none" xmlns="http://www.w3.org/2000/svg">
<path d="M29.0363 2.30769C29.0363 1.03319 27.9754 0 26.6667 0C25.358 0 24.2971 1.03319 24.2971 2.30769V4.10105C22.1462 4.23047 20.0037 4.53629 17.8927 5.01854C9.51836 6.93158 2.97963 13.2995 1.01527 21.4551C-0.338424 27.0754 -0.338425 32.9245 1.01527 38.5447C2.97963 46.7003 9.51837 53.0683 17.8927 54.9813C20.0037 55.4635 22.1462 55.7694 24.2971 55.8988L24.2971 57.6923C24.2971 58.9668 25.358 60 26.6667 60C27.9754 60 29.0363 58.9668 29.0363 57.6923L29.0363 2.30769Z" fill="url(#paint0_linear_0_3441)"/>
<path d="M35.4407 5.01854C34.1666 4.72748 32.8914 5.49742 32.5925 6.73824C32.2937 7.97907 33.0843 9.2209 34.3584 9.51196C40.9803 11.0247 46.1508 16.0601 47.7041 22.5091C48.8908 27.4361 48.8908 32.5637 47.7041 37.4907C46.1508 43.9397 40.9803 48.9751 34.3584 50.4879C33.0843 50.7789 32.2937 52.0208 32.5925 53.2616C32.8914 54.5024 34.1665 55.2723 35.4407 54.9813C43.815 53.0682 50.3537 46.7003 52.3181 38.5447C53.6718 32.9245 53.6718 27.0754 52.3181 21.4551C50.3537 13.2995 43.815 6.93158 35.4407 5.01854Z" fill="url(#paint1_linear_0_3441)"/>
<defs>
<linearGradient id="paint0_linear_0_3441" x1="15.5556" y1="-7" x2="42.2808" y2="57.9647" gradientUnits="userSpaceOnUse">
<stop stop-color="#3681F7"/>
<stop offset="1" stop-color="#0054F7"/>
</linearGradient>
<linearGradient id="paint1_linear_0_3441" x1="15.5556" y1="-7" x2="42.2808" y2="57.9647" gradientUnits="userSpaceOnUse">
<stop stop-color="#3681F7"/>
<stop offset="1" stop-color="#0054F7"/>
</linearGradient>
</defs>
</svg>
