<svg width="64" height="60" viewBox="0 0 64 60" fill="none" xmlns="http://www.w3.org/2000/svg">
<path d="M28.8414 22.2446H29.6439V27.1231L28.2933 26.634C27.5747 26.3738 26.9449 25.5643 26.9449 24.4879C26.9449 23.0803 27.9561 22.2446 28.8414 22.2446Z" fill="url(#paint0_linear_0_3445)"/>
<path d="M33.6912 37.755V32.8771L35.0403 33.3656C35.7589 33.6258 36.3887 34.4353 36.3887 35.5117C36.3887 36.9193 35.3775 37.755 34.4923 37.755H33.6912Z" fill="url(#paint1_linear_0_3445)"/>
<path fill-rule="evenodd" clip-rule="evenodd" d="M21.5639 1.101C28.2184 -0.367001 35.1149 -0.367 41.7695 1.101L43.1615 1.40809C52.4552 3.45831 59.7822 10.5712 62.0767 19.7707C63.7522 26.4882 63.7522 33.5118 62.0767 40.2294C59.7822 49.4288 52.4552 56.5417 43.1615 58.5919L41.7694 58.899C35.1149 60.367 28.2184 60.367 21.5639 58.899L20.1718 58.5919C10.8781 56.5417 3.55112 49.4288 1.25661 40.2294C-0.418871 33.5118 -0.418869 26.4882 1.25661 19.7706C3.55112 10.5712 10.8781 3.45831 20.1718 1.40809L21.5639 1.101ZM33.6912 16.5657C33.6912 15.4528 32.7852 14.5506 31.6675 14.5506C30.5499 14.5506 29.6439 15.4528 29.6439 16.5657V18.2144H28.8414C25.3966 18.2144 22.8976 21.1918 22.8976 24.4879C22.8976 27.0775 24.4272 29.5226 26.9101 30.4216L29.6439 31.4115V37.755H29.4183C28.2144 37.755 26.9449 36.6387 26.9449 34.885C26.9449 33.7721 26.0389 32.8699 24.9213 32.8699C23.8036 32.8699 22.8976 33.7721 22.8976 34.885C22.8976 38.5273 25.6549 41.7853 29.4183 41.7853H29.6439V43.4342C29.6439 44.5471 30.5499 45.4493 31.6675 45.4493C32.7852 45.4493 33.6912 44.5471 33.6912 43.4342V41.7853H34.4923C37.9371 41.7853 40.436 38.8079 40.436 35.5117C40.436 32.9222 38.9064 30.4771 36.4235 29.578L33.6912 28.5886V22.2446H33.9153C35.1192 22.2446 36.3887 23.3609 36.3887 25.1147C36.3887 26.2276 37.2947 27.1298 38.4124 27.1298C39.53 27.1298 40.436 26.2276 40.436 25.1147C40.436 21.4724 37.6788 18.2144 33.9153 18.2144H33.6912V16.5657Z" fill="url(#paint2_linear_0_3445)"/>
<defs>
<linearGradient id="paint0_linear_0_3445" x1="18.4722" y1="-7" x2="41.9668" y2="60.8198" gradientUnits="userSpaceOnUse">
<stop stop-color="#3681F7"/>
<stop offset="1" stop-color="#0054F7"/>
</linearGradient>
<linearGradient id="paint1_linear_0_3445" x1="18.4722" y1="-7" x2="41.9668" y2="60.8198" gradientUnits="userSpaceOnUse">
<stop stop-color="#3681F7"/>
<stop offset="1" stop-color="#0054F7"/>
</linearGradient>
<linearGradient id="paint2_linear_0_3445" x1="18.4722" y1="-7" x2="41.9668" y2="60.8198" gradientUnits="userSpaceOnUse">
<stop stop-color="#3681F7"/>
<stop offset="1" stop-color="#0054F7"/>
</linearGradient>
</defs>
</svg>
