<svg width="30" height="30" viewBox="0 0 30 30" fill="none" xmlns="http://www.w3.org/2000/svg">
<g id="COCO/Line/Star">
<path id="Vector" d="M12.0674 5.73308C13.1651 3.08897 16.8349 3.08897 17.9326 5.73308L18.6972 7.57479C19.1467 8.65762 20.1337 9.40829 21.2784 9.53802L23.4121 9.77981C26.1066 10.0852 27.2195 13.4694 25.2516 15.3736L23.44 17.1265C22.6435 17.8972 22.2916 19.0322 22.5086 20.1306L22.946 22.3448C23.4996 25.1475 20.4971 27.2636 18.1273 25.7409L16.6964 24.8215C15.6595 24.1553 14.3405 24.1553 13.3036 24.8215L11.8727 25.7409C9.50292 27.2636 6.50039 25.1475 7.05404 22.3448L7.49144 20.1306C7.70841 19.0322 7.35647 17.8972 6.55997 17.1265L4.74839 15.3736C2.78048 13.4694 3.8934 10.0852 6.58793 9.77981L8.72157 9.53802C9.86631 9.40829 10.8533 8.65762 11.3028 7.57478L12.0674 5.73308Z" stroke="#0054F7" stroke-width="1.5" stroke-linecap="round" stroke-linejoin="round"/>
</g>
</svg>
