<svg width="16" height="16" viewBox="0 0 16 16" fill="none" xmlns="http://www.w3.org/2000/svg">
<g id="facebook (1) 1" clip-path="url(#clip0_468_1149)">
<g id="Group">
<path id="Vector" d="M15.7188 8C15.7188 3.96099 12.2187 0.6875 7.90005 0.6875C3.58141 0.6875 0.0812988 3.96099 0.0812988 8C0.0812988 12.039 3.58141 15.3125 7.90005 15.3125C7.94586 15.3125 7.99167 15.3125 8.03749 15.3096V9.61961H6.35768V7.78862H8.03749V6.44038C8.03749 4.8779 9.05759 4.02668 10.548 4.02668C11.2627 4.02668 11.8766 4.07524 12.0538 4.0981V5.73198H11.0275C10.2182 5.73198 10.0594 6.09189 10.0594 6.62034V7.78577H11.9988L11.7453 9.61675H10.0594V15.0297C13.3274 14.1528 15.7188 11.3392 15.7188 8Z" fill="#F5F5F5"/>
</g>
</g>
<defs>
<clipPath id="clip0_468_1149">
<rect width="15.6375" height="14.625" fill="white" transform="translate(0.0812988 0.6875)"/>
</clipPath>
</defs>
</svg>
