<svg width="139" height="40" viewBox="0 0 139 40" fill="none" xmlns="http://www.w3.org/2000/svg">
<g clip-path="url(#clip0_468_1183)">
<path fill-rule="evenodd" clip-rule="evenodd" d="M133.529 40H5.13769C2.30609 40 0 37.7456 0 35V5C0 2.24439 2.30609 0 5.13769 0H133.529C136.358 0 138.667 2.24439 138.667 5V35C138.667 37.7456 136.358 40 133.529 40Z" fill="#3681F7"/>
<path d="M73.0502 13.232C72.1242 13.232 71.3435 12.9153 70.7262 12.2918C70.114 11.6858 69.7721 10.8504 69.7874 9.99755C69.7874 9.08732 70.1038 8.31675 70.7262 7.70577C71.341 7.08233 72.1216 6.76562 73.0476 6.76562C73.9634 6.76562 74.744 7.08233 75.3716 7.70577C75.994 8.3367 76.3103 9.10727 76.3103 9.99755C76.3001 10.9103 75.9838 11.6808 75.3716 12.2893C74.7568 12.9177 73.9762 13.232 73.0502 13.232ZM45.4969 13.232C44.5913 13.232 43.8056 12.9202 43.1628 12.3043C42.525 11.6908 42.201 10.9153 42.201 10C42.201 9.08483 42.525 8.30927 43.1628 7.6958C43.7929 7.07984 44.5786 6.76812 45.4969 6.76812C45.9459 6.76812 46.3821 6.8554 46.8005 7.03246C47.2112 7.20453 47.5454 7.43894 47.7928 7.72572L47.854 7.79804L47.1627 8.46139L47.0913 8.37909C46.701 7.92523 46.178 7.70328 45.4867 7.70328C44.8694 7.70328 44.3311 7.91775 43.8873 8.34169C43.4408 8.76812 43.2138 9.32672 43.2138 10.0025C43.2138 10.6783 43.4408 11.2369 43.8873 11.6634C44.3311 12.0873 44.8694 12.3018 45.4867 12.3018C46.1449 12.3018 46.6984 12.0873 47.1296 11.6634C47.3847 11.414 47.5428 11.0649 47.5989 10.6235H45.3821V9.69081H48.5505L48.5632 9.7756C48.5862 9.93271 48.6091 10.0948 48.6091 10.2444C48.6091 11.1048 48.3438 11.8005 47.8183 12.3143C47.2214 12.9227 46.4408 13.232 45.4969 13.232ZM82.1317 13.0998H81.1547L78.1623 8.41899L78.1879 9.26188V13.0973H77.2108V6.90029H78.3256L78.3562 6.94767L81.17 11.3566L81.1444 10.5162V6.90029H82.1317V13.0998V13.0998ZM65.7084 13.0998H64.7186V7.83296H63.0018V6.90029H67.4227V7.83296H65.7059V13.0998H65.7084ZM62.1957 13.0998H61.2085V6.90029H62.1957V13.0998ZM56.6473 13.0998H55.6601V7.83296H53.9433V6.90029H58.3641V7.83296H56.6473V13.0998ZM53.3183 13.0898H49.5326V6.90029H53.3183V7.83296H50.5224V9.5337H53.0453V10.4564H50.5224V12.1571H53.3183V13.0898ZM71.4507 11.6509C71.892 12.0823 72.4277 12.2993 73.0502 12.2993C73.6905 12.2993 74.2134 12.0873 74.6496 11.6509C75.0833 11.227 75.3027 10.6709 75.3027 10C75.3027 9.32922 75.0833 8.77061 74.6522 8.34917C74.2109 7.91774 73.6726 7.70079 73.0527 7.70079C72.4124 7.70079 71.8895 7.91276 71.4558 8.34917C71.0221 8.77311 70.8027 9.32922 70.8027 10C70.8027 10.6709 71.0196 11.2295 71.4507 11.6509Z" fill="#F5F5F5"/>
<path fill-rule="evenodd" clip-rule="evenodd" d="M69.6955 21.7554C67.2848 21.7554 65.3308 23.5434 65.3308 26.0098C65.3308 28.4537 67.2976 30.2641 69.6955 30.2641C72.1062 30.2641 74.0603 28.4636 74.0603 26.0098C74.0603 23.5434 72.1062 21.7554 69.6955 21.7554ZM69.6955 28.5784C68.3767 28.5784 67.2415 27.511 67.2415 25.9998C67.2415 24.4661 68.3792 23.4213 69.6955 23.4213C71.0144 23.4213 72.1496 24.4661 72.1496 25.9998C72.1521 27.521 71.0144 28.5784 69.6955 28.5784ZM60.1727 21.7554C57.762 21.7554 55.8079 23.5434 55.8079 26.0098C55.8079 28.4537 57.7747 30.2641 60.1727 30.2641C62.5834 30.2641 64.5374 28.4636 64.5374 26.0098C64.5374 23.5434 62.5808 21.7554 60.1727 21.7554ZM60.1727 28.5784C58.8538 28.5784 57.7186 27.511 57.7186 25.9998C57.7186 24.4661 58.8564 23.4213 60.1727 23.4213C61.4915 23.4213 62.6267 24.4661 62.6267 25.9998C62.6267 27.521 61.4915 28.5784 60.1727 28.5784ZM48.8412 23.0547V24.8552H53.262C53.1268 25.8651 52.785 26.6108 52.2621 27.122C51.6141 27.7554 50.6141 28.4437 48.8514 28.4437C46.1346 28.4437 44.0096 26.2991 44.0096 23.6432C44.0096 20.9873 46.1346 18.8427 48.8514 18.8427C50.3182 18.8427 51.3871 19.4088 52.1804 20.132L53.4865 18.8552C52.3845 17.8227 50.9177 17.0322 48.8616 17.0322C45.1346 17.0322 42.0071 19.9998 42.0071 23.6332C42.0071 27.2766 45.132 30.2342 48.8616 30.2342C50.8743 30.2342 52.3845 29.5908 53.5784 28.3789C54.7952 27.1893 55.1804 25.511 55.1804 24.1569C55.1804 23.7355 55.1472 23.3564 55.0784 23.0347H48.8386C48.8412 23.0322 48.8412 23.0547 48.8412 23.0547ZM95.1901 24.4562C94.8253 23.5011 93.7233 21.7454 91.4631 21.7454C89.2233 21.7454 87.3611 23.4686 87.3611 25.9998C87.3611 28.3888 89.2029 30.2542 91.6799 30.2542C93.6697 30.2542 94.8279 29.0646 95.3049 28.3664L93.8279 27.3988C93.3381 28.1095 92.657 28.5759 91.6901 28.5759C90.7131 28.5759 90.0295 28.142 89.5754 27.2866L95.3942 24.93C95.3942 24.9325 95.1901 24.4562 95.1901 24.4562ZM89.2565 25.8776C89.2106 24.2342 90.5626 23.3988 91.5294 23.3988C92.2922 23.3988 92.9274 23.7654 93.1442 24.2991L89.2565 25.8776ZM84.5295 29.9998H86.4402V17.5011H84.5295V29.9998ZM81.3918 22.7006H81.3229C80.8918 22.1993 80.0729 21.7454 79.027 21.7454C76.8561 21.7454 74.8562 23.6133 74.8562 26.0123C74.8562 28.4013 76.8459 30.2467 79.027 30.2467C80.0602 30.2467 80.8918 29.7903 81.3229 29.2791H81.3918V29.8901C81.3918 31.5135 80.5041 32.3888 79.073 32.3888C77.902 32.3888 77.175 31.5659 76.8791 30.8776L75.2184 31.5559C75.6954 32.6781 76.9684 34.0671 79.0704 34.0671C81.3102 34.0671 83.2081 32.7779 83.2081 29.6332V21.9998H81.402V22.7006C81.4046 22.7006 81.3918 22.7006 81.3918 22.7006ZM79.198 28.5784C77.8791 28.5784 76.7771 27.5011 76.7771 26.0123C76.7771 24.511 77.8791 23.4237 79.198 23.4237C80.5041 23.4237 81.5168 24.5235 81.5168 26.0123C81.5296 27.5011 80.5066 28.5784 79.198 28.5784ZM104.136 17.5011H99.5676V29.9998H101.478V25.2666H104.139C106.254 25.2666 108.333 23.7679 108.333 21.3888C108.333 19.0098 106.261 17.5011 104.136 17.5011ZM104.193 23.521H101.476V19.2317H104.193C105.624 19.2317 106.432 20.3863 106.432 21.3764C106.432 22.3564 105.613 23.521 104.193 23.521ZM115.991 21.733C114.603 21.733 113.172 22.334 112.58 23.6432L114.274 24.3315C114.639 23.6432 115.307 23.4088 116.014 23.4088C117.004 23.4088 118.004 23.9873 118.027 25.0198V25.1519C117.685 24.9624 116.935 24.6731 116.037 24.6731C114.208 24.6731 112.353 25.6507 112.353 27.4836C112.353 29.1619 113.853 30.2392 115.524 30.2392C116.807 30.2392 117.514 29.6731 117.955 29.0173H118.024V29.9848H119.866V25.1968C119.866 22.9674 118.172 21.733 115.991 21.733ZM115.751 28.5784C115.126 28.5784 114.251 28.2791 114.251 27.511C114.251 26.5434 115.343 26.1769 116.274 26.1769C117.116 26.1769 117.514 26.3539 118.014 26.5983C117.876 27.7205 116.907 28.5684 115.751 28.5784ZM126.585 21.9998L124.391 27.4213H124.322L122.049 21.9998H119.993L123.404 29.5784L121.46 33.7903H123.45L128.697 21.9998H126.585ZM109.386 29.9998H111.297V17.5011H109.386V29.9998Z" fill="#F5F5F5"/>
<path fill-rule="evenodd" clip-rule="evenodd" d="M10.6734 7.53413C10.3775 7.84585 10.2065 8.32216 10.2065 8.9456V31.0578C10.2065 31.6813 10.3775 32.1576 10.6836 32.4568L10.7627 32.5241L23.436 20.1351V19.8583L10.7525 7.4668L10.6734 7.53413Z" fill="#F5F5F5"/>
<path fill-rule="evenodd" clip-rule="evenodd" d="M27.6528 24.2772L23.4258 20.1451V19.8558L27.6528 15.7236L27.7446 15.7785L32.7445 18.5565C34.1756 19.3446 34.1756 20.6463 32.7445 21.4443L27.7446 24.2224L27.6528 24.2772Z" fill="#C7C7C7"/>
<path fill-rule="evenodd" clip-rule="evenodd" d="M27.7446 24.2219L23.4257 20L10.6733 32.4663C11.1402 32.9551 11.9233 33.01 12.7983 32.5337L27.7446 24.2219Z" fill="#E7E7E7"/>
<path fill-rule="evenodd" clip-rule="evenodd" d="M27.7446 15.7784L12.7983 7.47918C11.9233 6.9904 11.1376 7.05774 10.6733 7.54651L23.4257 20.0004L27.7446 15.7784Z" fill="#E7E7E7"/>
<path opacity="0.2" fill-rule="evenodd" clip-rule="evenodd" d="M27.6528 24.1318L12.8086 32.3762C11.9795 32.8426 11.2397 32.8101 10.7627 32.3862L10.6836 32.4635L10.7627 32.5308C11.2397 32.9523 11.9795 32.9872 12.8086 32.5209L27.7548 24.2216L27.6528 24.1318Z" fill="#3681F7"/>
<path opacity="0.12" fill-rule="evenodd" clip-rule="evenodd" d="M32.7445 21.2993L27.64 24.1322L27.7318 24.2219L32.7318 21.4439C33.4486 21.0449 33.8007 20.5212 33.8007 20C33.7573 20.4788 33.3925 20.9327 32.7445 21.2993Z" fill="#3681F7"/>
<path opacity="0.25" fill-rule="evenodd" clip-rule="evenodd" d="M12.7983 7.62329L32.7445 18.7006C33.3925 19.0572 33.7573 19.5235 33.8134 19.9999C33.8134 19.4787 33.4614 18.955 32.7445 18.556L12.7983 7.47866C11.3672 6.67816 10.2065 7.34649 10.2065 8.94499V9.08963C10.2065 7.48863 11.3672 6.83277 12.7983 7.62329Z" fill="#F5F5F5"/>
</g>
<defs>
<clipPath id="clip0_468_1183">
<rect width="138.667" height="40" fill="white"/>
</clipPath>
</defs>
</svg>
