<svg width="15" height="14" viewBox="0 0 15 14" fill="none" xmlns="http://www.w3.org/2000/svg">
<g id="linkedin (1) 1" clip-path="url(#clip0_468_1161)">
<g id="Group">
<path id="Vector" d="M14.4464 13.6875V13.6869H14.4499V8.91917C14.4499 6.58675 13.913 4.79004 10.9975 4.79004C9.59589 4.79004 8.65532 5.50937 8.27133 6.19133H8.23079V5.00779H5.46643V13.6869H8.34489V9.38933C8.34489 8.25779 8.57424 7.16362 10.0725 7.16362C11.5488 7.16362 11.5708 8.45496 11.5708 9.46192V13.6875H14.4464Z" fill="#F5F5F5"/>
<path id="Vector_2" d="M0.779175 5.00879H3.66111V13.6879H0.779175V5.00879Z" fill="#F5F5F5"/>
<path id="Vector_3" d="M2.21908 0.6875C1.29763 0.6875 0.549927 1.38679 0.549927 2.24858C0.549927 3.11037 1.29763 3.82429 2.21908 3.82429C3.14054 3.82429 3.88824 3.11037 3.88824 2.24858C3.88766 1.38679 3.13996 0.6875 2.21908 0.6875V0.6875Z" fill="#F5F5F5"/>
</g>
</g>
<defs>
<clipPath id="clip0_468_1161">
<rect width="13.9" height="13" fill="white" transform="translate(0.549927 0.6875)"/>
</clipPath>
</defs>
</svg>
