<svg width="141" height="40" viewBox="0 0 141 40" fill="none" xmlns="http://www.w3.org/2000/svg">
<path d="M66.0494 17.781V17.205C66.0494 14.4172 64.5893 13.2969 61.2399 13.2969H56.0559V26.6312H58.5442V21.7122H61.1362L63.8866 26.634H66.6571L63.5237 21.3752C65.1883 20.8683 66.0494 19.7451 66.0494 17.781ZM61.1823 19.6155H58.5442V15.4252H61.1823C62.9794 15.4252 63.5611 15.742 63.5611 17.4412V17.5679C63.5611 19.2613 62.9794 19.6155 61.1823 19.6155Z" fill="#F5F5F5"/>
<path d="M72.7166 13.3115L67.7601 26.6314H70.2484L71.4839 23.0977H76.6477L77.9005 26.6314H80.5213L75.562 13.3115H72.7166ZM72.1579 21.0875L74.0644 15.6616L75.9738 21.0875H72.1579Z" fill="#F5F5F5"/>
<path d="M86.7795 13.3115H81.6329V26.6314H86.8169C91.3068 26.6314 92.597 24.6154 92.597 20.739V19.1867C92.597 15.2382 91.3241 13.3115 86.7795 13.3115ZM90.0165 20.6439C90.0165 23.7889 89.1353 24.4801 86.6671 24.4801H84.1212V15.4629H86.6671C89.1353 15.4629 90.0165 16.1166 90.0165 19.2788V20.6439Z" fill="#F5F5F5"/>
<path d="M97.1819 13.3115H94.6936V26.6343H97.1819V13.3115Z" fill="#F5F5F5"/>
<path d="M108.146 22.5534L101.764 13.3115H99.6127V26.6314H102.101V17.4644L108.446 26.6314H110.617V13.3115H108.146V22.5534Z" fill="#F5F5F5"/>
<path d="M118.885 19.4279L118.474 21.4123H120.737V24.4794H118.453C115.985 24.4794 115.285 24.0273 115.285 20.8305V19.0737C115.285 16.0037 115.861 15.4248 118.577 15.4248C119.384 15.4248 120.187 15.4046 122.413 15.4622L122.805 13.3109C121.385 13.2907 120.279 13.2734 118.727 13.2734C113.918 13.2734 112.702 15.2174 112.702 19.0334V20.8852C112.702 24.8509 113.955 26.6452 118.502 26.6452L121.814 26.625C122.805 26.5674 123.217 26.049 123.217 24.7732V19.4279H118.885Z" fill="#F5F5F5"/>
<path d="M42.8109 15.4629H47.3757V26.6314H49.864V15.4629H54.1119L54.5238 13.3115H43.2199L42.8109 15.4629Z" fill="#F5F5F5"/>
<path d="M125.161 26.0585C125.161 25.6841 124.997 25.5056 124.585 25.5056C124.173 25.5056 124.026 25.6841 124.026 26.0585C124.026 26.4329 124.19 26.6057 124.585 26.6057C124.98 26.6057 125.161 26.4243 125.161 26.0585ZM127.969 22.3146C128.335 22.3146 128.801 22.3146 129.121 22.3146L129.279 21.4909C128.64 21.4678 128.268 21.4909 127.946 21.4909C126.316 21.4909 125.743 22.0669 125.743 23.7776V24.3305C125.743 26.024 126.267 26.6345 127.952 26.6345C128.211 26.6345 128.597 26.6345 129.164 26.6201L129.323 25.7936C128.677 25.8137 128.317 25.7936 127.98 25.7936C126.975 25.7936 126.733 25.543 126.733 24.3305V23.7545C126.733 22.5219 126.932 22.2915 127.966 22.2915L127.969 22.3146ZM132.001 25.9318C130.97 25.9318 130.745 25.687 130.745 24.3824V23.72C130.745 22.3981 130.97 22.1706 132.001 22.1706C133.032 22.1706 133.265 22.4125 133.265 23.72V24.3737C133.265 25.6928 133.029 25.9203 132.001 25.9203V25.9318ZM132.001 26.744C133.838 26.744 134.256 25.9174 134.256 24.4025V23.6969C134.256 22.1187 133.81 21.3584 132.001 21.3584C130.192 21.3584 129.757 22.185 129.757 23.6969V24.3939C129.757 25.9721 130.201 26.7353 132.001 26.7353V26.744ZM140.097 26.6144V21.4966H139.034L137.614 24.2729L136.114 21.4966H135.071V26.6057H136.024V23.0029L137.193 25.1628H137.991L139.143 22.951V26.6057L140.097 26.6144Z" fill="#F5F5F5"/>
<path d="M5.70525 14.8288H18.4578L14.8146 11.1885H5.70525V14.8288ZM16.1768 11.1885H21.3262L25.7528 15.6121L30.1764 11.1885H35.3258L26.9739 19.5404H24.5259L16.1768 11.1885ZM27.0056 20.4994L35.3258 28.8197H30.1764L25.7528 24.3932L21.3262 28.8197H16.1768L24.4971 20.4994H27.0056ZM5.69373 15.7907H9.35418V20.0185H15.6901V23.6588H9.35418V28.8197H5.70525V15.7907H5.69373Z" fill="#F5F5F5"/>
<path fill-rule="evenodd" clip-rule="evenodd" d="M1.87198 3.67197C1.90078 2.96062 1.99582 2.51998 2.26078 2.26078C2.52574 2.00158 2.9635 1.90078 3.67773 1.87198H36.328C37.0423 1.90078 37.48 1.99582 37.745 2.26078C38.0099 2.52574 38.105 2.96062 38.1338 3.67197V36.3338C38.105 37.0451 38.0099 37.4858 37.745 37.745C37.48 38.0042 37.0451 38.105 36.3338 38.1338H3.67773C2.9635 38.105 2.52574 38.0128 2.26078 37.745C1.99582 37.4771 1.90078 37.0451 1.87198 36.3338V3.67197ZM0 1.98718C0.0316797 1.20095 0.135359 0.719994 0.429117 0.429117C0.722874 0.138239 1.20383 0.0316797 1.99006 0H38.0157C38.8019 0.0316797 39.2829 0.135359 39.5766 0.429117C39.8704 0.722874 39.9741 1.20095 40.0058 1.98718V38.0157C39.9741 38.799 39.8704 39.28 39.5766 39.5709C39.2829 39.8618 38.8048 39.9683 38.0215 40H1.99006C1.20383 39.9683 0.722874 39.8646 0.429117 39.5738C0.135359 39.2829 0.0316797 38.8077 0 38.0157V1.98718Z" fill="#F5F5F5"/>
</svg>
