<svg width="158" height="28" viewBox="0 0 158 28" fill="none" xmlns="http://www.w3.org/2000/svg">
<g id="Neteller">
<path id="Vector" d="M155.113 2.42404C153.1 1.04464 150.052 0.348965 146.058 0.348965H135.597L131.708 21.4616H118.004L118.885 16.6716H127.14L128.118 11.2916L119.868 11.3035L120.751 6.53488H129.254L130.386 0.350197H113.118L109.426 20.3768H103.089L106.806 0.349144H97.7794L94.0875 20.3758H87.9144L91.6348 0.349144H82.6129L78.7192 21.4618H64.9168L65.7893 16.6717H74.0775L75.0569 11.3224L66.7766 11.3141L67.6551 6.53595H76.2535L77.3777 0.348633H23.5678L20.5051 17.0788L14.4057 0.348633H5.04049L0 27.6522H8.9439L11.9948 10.4607L17.9135 27.6522H49.9677L53.865 6.53331H58.8781L54.9809 27.6522H139.322L141.767 14.3212L145.723 27.6522H154.671L150.572 16.7591L151.51 16.5573C153.576 16.1145 155.187 15.1637 156.308 13.738C157.429 12.2992 158 10.452 158 8.2332C158 5.65005 157.055 3.74951 155.111 2.42246L155.113 2.42404ZM42.1846 21.4616H28.4938L29.3782 16.6716H37.9656L38.939 11.2764H30.4343L31.2535 6.53623H44.9242L42.182 21.4615L42.1846 21.4616ZM147.74 12.2649C146.84 12.894 145.535 13.2003 143.751 13.2003H141.982L143.339 5.87326H144.64C146.122 5.87326 147.202 6.11068 147.947 6.595C148.529 6.97488 149.221 7.72634 149.221 9.1473C149.219 10.8662 148.414 11.7898 147.737 12.2647L147.74 12.2649Z" fill="#F5F5F5"/>
</g>
</svg>
