<svg width="147" height="36" viewBox="0 0 147 36" fill="none" xmlns="http://www.w3.org/2000/svg">
<g id="PayPal">
<path id="Vector" d="M54.9664 8.08008H46.8317C46.2751 8.08008 45.8017 8.48449 45.7148 9.03402L42.4248 29.8935C42.3594 30.3051 42.6782 30.6762 43.0957 30.6762H46.9792C47.5359 30.6762 48.0093 30.2718 48.0961 29.7211L48.9835 24.0949C49.0691 23.5442 49.5437 23.1398 50.0992 23.1398H52.6744C58.0329 23.1398 61.1254 20.5468 61.9331 15.4083C62.2971 13.1602 61.9485 11.3939 60.8959 10.1569C59.7397 8.79851 57.6891 8.08008 54.9664 8.08008ZM55.9049 15.6986C55.4601 18.6175 53.2298 18.6175 51.0733 18.6175H49.8458L50.707 13.1662C50.7581 12.8367 51.0436 12.5941 51.3767 12.5941H51.9393C53.4082 12.5941 54.794 12.5941 55.51 13.4314C55.937 13.931 56.0679 14.6732 55.9049 15.6986Z" fill="#F5F5F5"/>
<path id="Vector_2" d="M79.2822 15.6046H75.3867C75.0549 15.6046 74.7682 15.8473 74.7171 16.1768L74.5446 17.2663L74.2722 16.8714C73.4289 15.6475 71.5484 15.2383 69.6714 15.2383C65.3667 15.2383 61.6901 18.4986 60.9741 23.072C60.6018 25.3534 61.1311 27.5349 62.4252 29.0562C63.6123 30.455 65.3108 31.0378 67.3317 31.0378C70.8002 31.0378 72.7235 28.8076 72.7235 28.8076L72.5499 29.89C72.4845 30.3039 72.8032 30.6751 73.2183 30.6751H76.7272C77.2851 30.6751 77.7561 30.2706 77.8441 29.7199L79.9495 16.3873C80.0161 15.9769 79.6985 15.6046 79.2822 15.6046ZM73.8523 23.1862C73.4765 25.4117 71.7101 26.9057 69.4573 26.9057C68.3261 26.9057 67.4221 26.5429 66.8417 25.8554C66.266 25.1726 66.0471 24.2008 66.2303 23.1184C66.5812 20.912 68.3773 19.3693 70.5956 19.3693C71.7018 19.3693 72.601 19.7368 73.1934 20.4303C73.7869 21.1309 74.0224 22.1086 73.8523 23.1862Z" fill="#F5F5F5"/>
<path id="Vector_3" d="M100.029 15.6045H96.1145C95.741 15.6045 95.3901 15.79 95.1784 16.1005L89.7794 24.0532L87.4909 16.4109C87.347 15.9328 86.9057 15.6045 86.4061 15.6045H82.5594C82.092 15.6045 81.7673 16.0612 81.9159 16.5013L86.2277 29.1548L82.1741 34.8773C81.8553 35.3281 82.1764 35.9478 82.7272 35.9478H86.6369C87.008 35.9478 87.3553 35.767 87.5659 35.4625L100.586 16.6691C100.897 16.2194 100.577 15.6045 100.029 15.6045Z" fill="#F5F5F5"/>
<path id="Vector_4" d="M112.988 8.08008H104.853C104.297 8.08008 103.824 8.48449 103.737 9.03402L100.447 29.8935C100.381 30.3051 100.7 30.6762 101.115 30.6762H105.29C105.678 30.6762 106.01 30.3931 106.071 30.0077L107.004 24.0949C107.09 23.5442 107.564 23.1398 108.12 23.1398H110.694C116.054 23.1398 119.145 20.5468 119.954 15.4083C120.319 13.1602 119.968 11.3939 118.915 10.1569C117.761 8.79851 115.711 8.08008 112.988 8.08008ZM113.927 15.6986C113.483 18.6175 111.253 18.6175 109.095 18.6175H107.869L108.731 13.1662C108.782 12.8367 109.066 12.5941 109.4 12.5941H109.962C111.43 12.5941 112.817 12.5941 113.533 13.4314C113.96 13.931 114.09 14.6732 113.927 15.6986Z" fill="#F5F5F5"/>
<path id="Vector_5" d="M137.304 15.6046H133.411C133.077 15.6046 132.792 15.8473 132.742 16.1768L132.57 17.2663L132.296 16.8714C131.453 15.6475 129.574 15.2383 127.697 15.2383C123.392 15.2383 119.717 18.4986 119.001 23.072C118.629 25.3534 119.156 27.5349 120.451 29.0562C121.64 30.455 123.336 31.0378 125.357 31.0378C128.826 31.0378 130.749 28.8076 130.749 28.8076L130.575 29.89C130.51 30.3039 130.829 30.6751 131.246 30.6751H134.754C135.309 30.6751 135.783 30.2706 135.869 29.7199L137.976 16.3873C138.04 15.9769 137.721 15.6046 137.304 15.6046ZM131.874 23.1862C131.501 25.4117 129.732 26.9057 127.479 26.9057C126.35 26.9057 125.444 26.5429 124.863 25.8554C124.288 25.1726 124.071 24.2008 124.252 23.1184C124.605 20.912 126.399 19.3693 128.617 19.3693C129.724 19.3693 130.623 19.7368 131.215 20.4303C131.811 21.1309 132.047 22.1086 131.874 23.1862Z" fill="#F5F5F5"/>
<path id="Vector_6" d="M141.896 8.65242L138.557 29.8937C138.492 30.3053 138.81 30.6764 139.225 30.6764H142.582C143.14 30.6764 143.613 30.272 143.699 29.7213L146.991 8.86295C147.057 8.4514 146.738 8.0791 146.323 8.0791H142.564C142.232 8.08029 141.947 8.32294 141.896 8.65242Z" fill="#F5F5F5"/>
<path id="Vector_7" d="M27.4147 9.17188C27.3814 9.38479 27.3433 9.60246 27.3005 9.82608C25.8291 17.3803 20.7954 19.99 14.3663 19.99H11.093C10.3067 19.99 9.6442 20.5609 9.52169 21.3365L7.84574 31.9654L7.37115 34.9783C7.29145 35.4874 7.68398 35.9466 8.19782 35.9466H14.0036C14.6911 35.9466 15.2751 35.447 15.3833 34.769L15.4404 34.474L16.5335 27.5371L16.6037 27.1565C16.7108 26.4761 17.296 25.9765 17.9835 25.9765H18.8518C24.4767 25.9765 28.8801 23.6928 30.1671 17.0841C30.7047 14.3234 30.4264 12.0182 29.0038 10.397C28.5732 9.90815 28.0392 9.50254 27.4147 9.17188Z" fill="#F5F5F5"/>
<path id="Vector_8" d="M25.8746 8.55839C25.6498 8.49297 25.4178 8.4335 25.18 8.37997C24.9409 8.32764 24.6958 8.28125 24.4437 8.24081C23.5611 8.09807 22.5941 8.03027 21.5581 8.03027H12.8132C12.5979 8.03027 12.3933 8.07904 12.2101 8.16706C11.8069 8.36094 11.5071 8.74276 11.4346 9.21021L9.57428 20.993L9.52075 21.3367C9.64327 20.5612 10.3058 19.9903 11.092 19.9903H14.3654C20.7944 19.9903 25.8282 17.3794 27.2996 9.82635C27.3436 9.60274 27.3804 9.38507 27.4138 9.17215C27.0415 8.9747 26.6382 8.8058 26.2041 8.66188C26.097 8.62619 25.9864 8.5917 25.8746 8.55839Z" fill="white" fill-opacity="0.09"/>
<path id="Vector_9" d="M11.4353 9.21036C11.5079 8.74291 11.8076 8.36109 12.2108 8.1684C12.3952 8.08038 12.5986 8.03161 12.8139 8.03161H21.5588C22.5948 8.03161 23.5618 8.09941 24.4444 8.24215C24.6966 8.28259 24.9416 8.32898 25.1807 8.38131C25.4186 8.43484 25.6505 8.49431 25.8753 8.55973C25.9871 8.59304 26.0977 8.62753 26.206 8.66202C26.6401 8.80595 27.0434 8.97604 27.4157 9.1723C27.8534 6.38065 27.4121 4.47989 25.9027 2.75875C24.2386 0.863944 21.2352 0.0527344 17.3921 0.0527344H6.235C5.44996 0.0527344 4.78029 0.623674 4.65897 1.40039L0.0117592 30.8573C-0.079829 31.4401 0.369786 31.9659 0.957377 31.9659H7.84552L9.57499 20.9931L11.4353 9.21036Z" fill="#F5F5F5"/>
</g>
</svg>
