<svg width="15" height="16" viewBox="0 0 15 16" fill="none" xmlns="http://www.w3.org/2000/svg">
<path d="M12.3189 3.6606C12.2107 3.6077 12.1053 3.5497 12.0032 3.48683C11.7063 3.30119 11.434 3.08245 11.1923 2.83532C10.5876 2.18098 10.3618 1.51715 10.2786 1.05238H10.2819C10.2124 0.666598 10.2411 0.416992 10.2455 0.416992H7.49115V10.4891C7.49115 10.6243 7.49115 10.7579 7.48514 10.89C7.48514 10.9064 7.48347 10.9216 7.48247 10.9393C7.48247 10.9466 7.48247 10.9541 7.4808 10.9617C7.4808 10.9636 7.4808 10.9655 7.4808 10.9674C7.45176 11.3288 7.32927 11.6779 7.12408 11.984C6.91889 12.2901 6.63731 12.5438 6.30409 12.7229C5.95681 12.9097 5.56402 13.0077 5.16447 13.0072C3.88119 13.0072 2.84113 12.0177 2.84113 10.7955C2.84113 9.57341 3.88119 8.58384 5.16447 8.58384C5.40739 8.58362 5.64881 8.61977 5.87978 8.69094L5.88312 6.03881C5.18197 5.95315 4.46965 6.00585 3.7911 6.19357C3.11256 6.3813 2.48252 6.69997 1.94072 7.12949C1.46599 7.51957 1.06687 7.985 0.761346 8.50485C0.645078 8.69442 0.206403 9.45619 0.153281 10.6925C0.119871 11.3943 0.342716 12.1213 0.448961 12.4218V12.4281C0.515781 12.605 0.77471 13.2088 1.19668 13.7178C1.53694 14.1261 1.93895 14.4848 2.38976 14.7823V14.7759L2.39644 14.7823C3.72984 15.6391 5.20824 15.5829 5.20824 15.5829C5.46416 15.5731 6.32146 15.5829 7.29504 15.1466C8.37485 14.6628 8.9896 13.9421 8.9896 13.9421C9.38233 13.5115 9.69462 13.0208 9.91306 12.491C10.1623 11.8714 10.2455 11.1282 10.2455 10.8312V5.48778C10.2789 5.50674 10.7239 5.78509 10.7239 5.78509C10.7239 5.78509 11.3651 6.17372 12.3654 6.4268C13.083 6.6069 14.0499 6.64481 14.0499 6.64481V4.05902C13.7111 4.09378 13.0232 3.99267 12.3189 3.6606Z" fill="#F5F5F5"/>
</svg>
