<svg width="118" height="30" viewBox="0 0 118 30" fill="none" xmlns="http://www.w3.org/2000/svg">
<g id="Visa">
<path id="polygon9" d="M51.1335 29.0662H41.5746L47.5534 1.02344H57.1117L51.1335 29.0662Z" fill="#F5F5F5"/>
<path id="path11" d="M85.7855 1.70952C83.9 1.14211 80.9096 0.515625 77.2119 0.515625C67.7722 0.515625 61.1248 4.33401 61.0841 9.79315C61.0057 13.8209 65.8434 16.058 69.4616 17.401C73.1598 18.7733 74.417 19.669 74.417 20.8922C74.3793 22.7709 71.4286 23.6369 68.6765 23.6369C64.8602 23.6369 62.8153 23.1904 59.7078 22.1452L58.4491 21.6972L57.1115 27.9921C59.3534 28.7669 63.4839 29.4545 67.7722 29.4846C77.802 29.4846 84.3318 25.7253 84.4092 19.9077C84.4473 16.7154 81.8928 14.2693 76.3855 12.2705C73.0422 10.9874 70.9947 10.1223 70.9947 8.80941C71.0339 7.61592 72.7265 6.39348 76.5005 6.39348C79.608 6.33361 81.8912 6.90022 83.6209 7.46723L84.4855 7.765L85.7855 1.70952Z" fill="#F5F5F5"/>
<path id="path13" d="M98.489 19.1316C99.2762 17.5206 102.305 11.2855 102.305 11.2855C102.266 11.3454 103.091 9.64474 103.563 8.60073L104.231 11.0171C104.231 11.0171 106.041 17.7296 106.434 19.1316C104.94 19.1316 100.377 19.1316 98.489 19.1316ZM110.288 1.02344H102.894C100.614 1.02344 98.8821 1.53018 97.8983 3.35015L83.6998 29.0658H93.7297C93.7297 29.0658 95.3809 25.6046 95.7358 24.8592C96.8362 24.8592 106.593 24.8592 108.009 24.8592C108.283 25.8437 109.149 29.0658 109.149 29.0658H118L110.288 1.02344Z" fill="#F5F5F5"/>
<path id="path15" d="M33.5901 1.02344L24.2288 20.1459L23.2059 16.2676C21.4752 11.7926 16.0473 6.93063 9.99011 4.51312L18.5647 29.0364H28.673L43.6979 1.02344H33.5901Z" fill="#F5F5F5"/>
<path id="path17" d="M15.5366 1.02441H0.157336L0 1.59103C11.9968 3.91814 19.9421 9.52755 23.2064 16.2698L19.8631 3.38166C19.3127 1.59063 17.6212 1.08349 15.5366 1.02441Z" fill="#F5F5F5"/>
</g>
</svg>
