<svg width="23" height="26" viewBox="0 0 23 26" fill="none" xmlns="http://www.w3.org/2000/svg">
<path d="M5.771 21.2919C5.771 19.2675 7.16003 17.5431 9.04776 17.2241L9.2178 17.1953C10.7294 16.9399 12.2697 16.9399 13.7813 17.1953L13.9513 17.2241C15.8391 17.5431 17.2281 19.2675 17.2281 21.2919C17.2281 22.1668 16.5583 22.8762 15.732 22.8762H7.26707C6.44081 22.8762 5.771 22.1668 5.771 21.2919Z" stroke="#1D1D1D"/>
<path d="M14.8412 11.0789C14.8412 12.9032 13.3451 14.3821 11.4996 14.3821C9.65402 14.3821 8.15791 12.9032 8.15791 11.0789C8.15791 9.25455 9.65402 7.77563 11.4996 7.77563C13.3451 7.77563 14.8412 9.25455 14.8412 11.0789Z" stroke="#1D1D1D"/>
<mask id="path-2-inside-1_0_1824" fill="white">
<path d="M11.4991 0.607178L12.0456 2.31126L13.814 2.31133L12.3834 3.36458L12.9298 5.06871L11.4991 4.01557L10.0683 5.06871L10.6147 3.36458L9.18408 2.31133L10.9525 2.31126L11.4991 0.607178Z"/>
</mask>
<path d="M11.4991 0.607178L12.0456 2.31126L13.814 2.31133L12.3834 3.36458L12.9298 5.06871L11.4991 4.01557L10.0683 5.06871L10.6147 3.36458L9.18408 2.31133L10.9525 2.31126L11.4991 0.607178Z" fill="#101525"/>
<path d="M11.4991 0.607178L13.4035 -0.00362343L11.4991 -5.9416L9.5946 -0.00362355L11.4991 0.607178ZM12.0456 2.31126L10.1411 2.92206L10.5867 4.31121L12.0455 4.31126L12.0456 2.31126ZM13.814 2.31133L14.9998 3.92193L19.9038 0.311563L13.8141 0.31133L13.814 2.31133ZM12.3834 3.36458L11.1976 1.75398L10.0399 2.60628L10.4789 3.97524L12.3834 3.36458ZM12.9298 5.06871L11.7442 6.6794L16.7212 10.3429L14.8343 4.45805L12.9298 5.06871ZM11.4991 4.01557L12.6847 2.40487L11.4991 1.53217L10.3134 2.40487L11.4991 4.01557ZM10.0683 5.06871L8.16382 4.45805L6.27689 10.3429L11.2539 6.6794L10.0683 5.06871ZM10.6147 3.36458L12.5192 3.97524L12.9582 2.60628L11.8005 1.75398L10.6147 3.36458ZM9.18408 2.31133L9.184 0.31133L3.09429 0.311563L7.99835 3.92193L9.18408 2.31133ZM10.9525 2.31126L10.9526 4.31126L12.4114 4.31121L12.857 2.92206L10.9525 2.31126ZM9.5946 1.21798L10.1411 2.92206L13.95 1.70046L13.4035 -0.00362343L9.5946 1.21798ZM12.0455 4.31126L13.8139 4.31133L13.8141 0.31133L12.0457 0.311263L12.0455 4.31126ZM12.6283 0.700726L11.1976 1.75398L13.5691 4.97518L14.9998 3.92193L12.6283 0.700726ZM10.4789 3.97524L11.0253 5.67937L14.8343 4.45805L14.2879 2.75392L10.4789 3.97524ZM14.1154 3.45801L12.6847 2.40487L10.3134 5.62626L11.7442 6.6794L14.1154 3.45801ZM10.3134 2.40487L8.88271 3.45801L11.2539 6.6794L12.6847 5.62626L10.3134 2.40487ZM11.9728 5.67937L12.5192 3.97524L8.71024 2.75392L8.16382 4.45805L11.9728 5.67937ZM11.8005 1.75398L10.3698 0.700726L7.99835 3.92193L9.429 4.97518L11.8005 1.75398ZM9.18415 4.31133L10.9526 4.31126L10.9524 0.311263L9.184 0.31133L9.18415 4.31133ZM12.857 2.92206L13.4035 1.21798L9.5946 -0.00362355L9.04806 1.70046L12.857 2.92206Z" fill="#1D1D1D" mask="url(#path-2-inside-1_0_1824)"/>
<mask id="path-4-inside-2_0_1824" fill="white">
<path d="M5.16356 5.41286L4.36076 7.0094L5.61119 8.27645L3.86452 7.99621L3.0616 9.59269L2.78489 7.82296L1.03824 7.54259L2.6139 6.72907L2.33732 4.95932L3.58784 6.22626L5.16356 5.41286Z"/>
</mask>
<path d="M5.16356 5.41286L4.36076 7.0094L5.61119 8.27645L3.86452 7.99621L3.0616 9.59269L2.78489 7.82296L1.03824 7.54259L2.6139 6.72907L2.33732 4.95932L3.58784 6.22626L5.16356 5.41286Z" fill="#101525"/>
<path d="M5.16356 5.41286L6.93387 6.32672L9.70938 0.80697L4.26162 3.61916L5.16356 5.41286ZM4.36076 7.0094L2.59045 6.09555L1.93521 7.39865L2.95581 8.43281L4.36076 7.0094ZM5.61119 8.27645L5.30046 10.2648L11.3393 11.2336L7.01614 6.85304L5.61119 8.27645ZM3.86452 7.99621L4.17525 6.0079L2.74961 5.77918L2.09427 7.08223L3.86452 7.99621ZM3.0616 9.59269L1.09925 9.90768L2.05592 16.0262L4.83185 10.5067L3.0616 9.59269ZM2.78489 7.82296L4.74725 7.50797L4.5214 6.06351L3.09578 5.83467L2.78489 7.82296ZM1.03824 7.54259L0.136173 5.74896L-5.31138 8.56156L0.727358 9.53088L1.03824 7.54259ZM2.6139 6.72907L3.51597 8.52271L4.80202 7.85871L4.57628 6.41423L2.6139 6.72907ZM2.33732 4.95932L3.74217 3.5358L-0.581279 -0.844448L0.37494 5.27416L2.33732 4.95932ZM3.58784 6.22626L2.18299 7.64978L3.20367 8.68387L4.48978 8.01997L3.58784 6.22626ZM3.39325 4.49901L2.59045 6.09555L6.13108 7.92326L6.93387 6.32672L3.39325 4.49901ZM2.95581 8.43281L4.20624 9.69986L7.01614 6.85304L5.76572 5.58599L2.95581 8.43281ZM5.92192 6.28814L4.17525 6.0079L3.55378 9.98453L5.30046 10.2648L5.92192 6.28814ZM2.09427 7.08223L1.29136 8.6787L4.83185 10.5067L5.63476 8.9102L2.09427 7.08223ZM5.02396 9.2777L4.74725 7.50797L0.822537 8.13795L1.09925 9.90768L5.02396 9.2777ZM3.09578 5.83467L1.34912 5.5543L0.727358 9.53088L2.47401 9.81125L3.09578 5.83467ZM1.94031 9.33623L3.51597 8.52271L1.71183 4.93543L0.136173 5.74896L1.94031 9.33623ZM4.57628 6.41423L4.2997 4.64448L0.37494 5.27416L0.651518 7.04391L4.57628 6.41423ZM0.932473 6.38284L2.18299 7.64978L4.99269 4.80275L3.74217 3.5358L0.932473 6.38284ZM4.48978 8.01997L6.06549 7.20657L4.26162 3.61916L2.68591 4.43256L4.48978 8.01997Z" fill="#1D1D1D" mask="url(#path-4-inside-2_0_1824)"/>
<mask id="path-6-inside-3_0_1824" fill="white">
<path d="M17.8369 5.41258L19.4126 6.22598L20.6631 4.95903L20.3866 6.72878L21.9622 7.5423L20.2156 7.82267L19.9389 9.5924L19.1359 7.99593L17.3893 8.27616L18.6397 7.00911L17.8369 5.41258Z"/>
</mask>
<path d="M17.8369 5.41258L19.4126 6.22598L20.6631 4.95903L20.3866 6.72878L21.9622 7.5423L20.2156 7.82267L19.9389 9.5924L19.1359 7.99593L17.3893 8.27616L18.6397 7.00911L17.8369 5.41258Z" fill="#101525"/>
<path d="M17.8369 5.41258L18.7388 3.61887L13.2911 0.806682L16.0666 6.32643L17.8369 5.41258ZM19.4126 6.22598L18.5107 8.01968L19.7968 8.68358L20.8175 7.6495L19.4126 6.22598ZM20.6631 4.95903L22.6255 5.27387L23.5817 -0.844736L19.2583 3.53551L20.6631 4.95903ZM20.3866 6.72878L18.4242 6.41394L18.1984 7.85842L19.4845 8.52242L20.3866 6.72878ZM21.9622 7.5423L22.2731 9.53059L28.3118 8.56127L22.8643 5.74867L21.9622 7.5423ZM20.2156 7.82267L19.9047 5.83438L18.4791 6.06322L18.2532 7.50768L20.2156 7.82267ZM19.9389 9.5924L18.1686 10.5064L20.9445 16.0259L21.9012 9.90739L19.9389 9.5924ZM19.1359 7.99593L20.9062 7.08194L20.2508 5.77889L18.8252 6.00761L19.1359 7.99593ZM17.3893 8.27616L15.9843 6.85275L11.6612 11.2333L17.7 10.2645L17.3893 8.27616ZM18.6397 7.00911L20.0446 8.43253L21.0652 7.39836L20.41 6.09526L18.6397 7.00911ZM16.935 7.20628L18.5107 8.01968L20.3146 4.43227L18.7388 3.61887L16.935 7.20628ZM20.8175 7.6495L22.068 6.38255L19.2583 3.53551L18.0078 4.80246L20.8175 7.6495ZM18.7008 4.64419L18.4242 6.41394L22.3489 7.04362L22.6255 5.27387L18.7008 4.64419ZM19.4845 8.52242L21.0601 9.33594L22.8643 5.74867L21.2886 4.93515L19.4845 8.52242ZM21.6513 5.55402L19.9047 5.83438L20.5264 9.81096L22.2731 9.53059L21.6513 5.55402ZM18.2532 7.50768L17.9765 9.27741L21.9012 9.90739L22.1779 8.13766L18.2532 7.50768ZM21.7091 8.67841L20.9062 7.08194L17.3657 8.90991L18.1686 10.5064L21.7091 8.67841ZM18.8252 6.00761L17.0785 6.28785L17.7 10.2645L19.4467 9.98424L18.8252 6.00761ZM18.7942 9.69957L20.0446 8.43253L17.2347 5.5857L15.9843 6.85275L18.7942 9.69957ZM20.41 6.09526L19.6072 4.49872L16.0666 6.32643L16.8694 7.92297L20.41 6.09526Z" fill="#1D1D1D" mask="url(#path-6-inside-3_0_1824)"/>
</svg>
