<svg width="24" height="24" viewBox="0 0 24 24" fill="none" xmlns="http://www.w3.org/2000/svg">
<path d="M3.35312 14.8117L3.83939 14.6954L3.35312 14.8117ZM3.35312 8.83297L3.83939 8.94934L3.35312 8.83297ZM20.6474 8.83298L20.1611 8.94934L20.6474 8.83298ZM20.6474 14.8117L20.1611 14.6954L20.6474 14.8117ZM15.0498 20.2988L15.1619 20.7861L15.0498 20.2988ZM8.95068 20.2988L9.06273 19.8115L8.95068 20.2988ZM8.95068 3.34591L9.06272 3.8332L8.95068 3.34591ZM15.0498 3.34591L15.1619 2.85863L15.0498 3.34591ZM3.83939 14.6954C3.38719 12.8056 3.38719 10.8391 3.83939 8.94934L2.86685 8.71661C2.37804 10.7593 2.37804 12.8854 2.86685 14.9281L3.83939 14.6954ZM20.1611 8.94934C20.6133 10.8391 20.6133 12.8056 20.1611 14.6954L21.1336 14.9281C21.6224 12.8854 21.6224 10.7593 21.1336 8.71662L20.1611 8.94934ZM14.9378 19.8115C13.0057 20.2558 10.9948 20.2558 9.06273 19.8115L8.83864 20.7861C10.9182 21.2642 13.0823 21.2642 15.1619 20.7861L14.9378 19.8115ZM9.06272 3.8332C10.9948 3.38894 13.0057 3.38893 14.9378 3.8332L15.1619 2.85863C13.0823 2.38046 10.9182 2.38046 8.83863 2.85863L9.06272 3.8332ZM9.06273 19.8115C6.46611 19.2144 4.44569 17.2291 3.83939 14.6954L2.86685 14.9281C3.56354 17.8396 5.88041 20.1059 8.83864 20.7861L9.06273 19.8115ZM15.1619 20.7861C18.1201 20.1059 20.437 17.8396 21.1336 14.9281L20.1611 14.6954C19.5548 17.2291 17.5344 19.2144 14.9378 19.8115L15.1619 20.7861ZM14.9378 3.8332C17.5344 4.43026 19.5548 6.41561 20.1611 8.94934L21.1336 8.71662C20.437 5.80514 18.1201 3.53884 15.1619 2.85863L14.9378 3.8332ZM8.83863 2.85863C5.8804 3.53884 3.56354 5.80514 2.86685 8.71661L3.83939 8.94934C4.44569 6.41561 6.4661 4.43026 9.06272 3.8332L8.83863 2.85863ZM14.5808 21C14.5808 19.5435 14.5819 18.5024 14.6904 17.7111C14.7968 16.9354 14.998 16.4747 15.3449 16.1347L14.6448 15.4205C14.0777 15.9765 13.8218 16.6849 13.6997 17.5753C13.5797 18.4502 13.5808 19.5723 13.5808 21H14.5808ZM20.3224 14.3816C18.8651 14.3816 17.7228 14.3805 16.8327 14.4979C15.9292 14.6169 15.2106 14.8659 14.6448 15.4205L15.3449 16.1347C15.6932 15.7932 16.1672 15.5942 16.9634 15.4893C17.7729 15.3826 18.8374 15.3816 20.3224 15.3816V14.3816Z" fill="#1D1D1D"/>
<path d="M9.00024 9H12.0002M9.00024 12H14.0002" stroke="#1D1D1D" stroke-linecap="round"/>
</svg>
