<svg width="139" height="40" viewBox="0 0 139 40" fill="none" xmlns="http://www.w3.org/2000/svg">
<path d="M133.733 40H4.85744C2.17963 40 0 37.872 0 35.267V4.726C0 2.12 2.17963 0 4.85744 0H133.733C136.41 0 138.667 2.12 138.667 4.726V35.267C138.667 37.872 136.41 40 133.733 40Z" fill="#3681F7"/>
<path d="M137.672 35.2677C137.672 37.3837 135.912 39.0976 133.734 39.0976H4.85745C2.6809 39.0976 0.914185 37.3837 0.914185 35.2677V4.72465C0.914185 2.60965 2.6809 0.889648 4.85745 0.889648H133.733C135.912 0.889648 137.671 2.60965 137.671 4.72465L137.672 35.2677Z" fill="#3681F7"/>
<path d="M30.9462 19.7842C30.9164 16.5612 33.6569 14.9932 33.7822 14.9202C32.2302 12.7172 29.8246 12.4162 28.9792 12.3922C26.9588 12.1852 24.999 13.5692 23.9698 13.5692C22.92 13.5692 21.3351 12.4122 19.6269 12.4462C17.4288 12.4792 15.3724 13.7182 14.2446 15.6422C11.9171 19.5652 13.653 25.3302 15.8829 28.5012C16.9984 30.0542 18.3019 31.7882 20.008 31.7272C21.6771 31.6602 22.3006 30.6912 24.3149 30.6912C26.3107 30.6912 26.8961 31.7272 28.6362 31.6882C30.4275 31.6602 31.5553 30.1282 32.6318 28.5612C33.9209 26.7812 34.4386 25.0282 34.4591 24.9382C34.417 24.9242 30.9801 23.6472 30.9462 19.7842Z" fill="#F5F5F5"/>
<path d="M27.6594 10.3058C28.5571 9.2128 29.1714 7.7258 29.0009 6.2168C27.7015 6.2728 26.0765 7.0918 25.1408 8.1608C24.3129 9.1028 23.5734 10.6468 23.7644 12.0988C25.224 12.2048 26.7226 11.3818 27.6594 10.3058Z" fill="#F5F5F5"/>
<path d="M55.102 31.5043H52.7694L51.4916 27.5953H47.0501L45.8329 31.5043H43.5619L47.9622 18.1963H50.6801L55.102 31.5043ZM51.1064 25.9553L49.9508 22.4803C49.8286 22.1253 49.5995 21.2893 49.2616 19.9733H49.2205C49.086 20.5393 48.8692 21.3753 48.5713 22.4803L47.4363 25.9553H51.1064Z" fill="#F5F5F5"/>
<path d="M66.4183 26.5879C66.4183 28.2199 65.9653 29.5099 65.0593 30.4569C64.2479 31.2999 63.2402 31.7209 62.0374 31.7209C60.7391 31.7209 59.8064 31.2669 59.2384 30.3589H59.1973V35.4139H57.0074V25.0669C57.0074 24.0409 56.9797 22.9879 56.9263 21.9079H58.8522L58.9744 23.4289H59.0155C59.7458 22.2829 60.8541 21.7109 62.3415 21.7109C63.5042 21.7109 64.4749 22.1579 65.2514 23.0529C66.03 23.9489 66.4183 25.1269 66.4183 26.5879ZM64.1873 26.6659C64.1873 25.7319 63.9716 24.9619 63.5381 24.3559C63.0646 23.7239 62.4288 23.4079 61.6317 23.4079C61.0914 23.4079 60.6004 23.5839 60.1618 23.9309C59.7222 24.2809 59.4346 24.7379 59.3 25.3039C59.2322 25.5679 59.1983 25.7839 59.1983 25.9539V27.5539C59.1983 28.2519 59.4182 28.8409 59.8578 29.3219C60.2974 29.8029 60.8685 30.0429 61.5711 30.0429C62.3959 30.0429 63.0379 29.7329 63.497 29.1149C63.9572 28.4959 64.1873 27.6799 64.1873 26.6659Z" fill="#F5F5F5"/>
<path d="M77.755 26.5879C77.755 28.2199 77.302 29.5099 76.395 30.4569C75.5846 31.2999 74.577 31.7209 73.3742 31.7209C72.0758 31.7209 71.1432 31.2669 70.5762 30.3589H70.5351V35.4139H68.3452V25.0669C68.3452 24.0409 68.3175 22.9879 68.264 21.9079H70.19L70.3122 23.4289H70.3533C71.0826 22.2829 72.1909 21.7109 73.6792 21.7109C74.8409 21.7109 75.8116 22.1579 76.5902 23.0529C77.3657 23.9489 77.755 25.1269 77.755 26.5879ZM75.524 26.6659C75.524 25.7319 75.3073 24.9619 74.8738 24.3559C74.4003 23.7239 73.7665 23.4079 72.9684 23.4079C72.4271 23.4079 71.9372 23.5839 71.4975 23.9309C71.0579 24.2809 70.7713 24.7379 70.6368 25.3039C70.57 25.5679 70.5351 25.7839 70.5351 25.9539V27.5539C70.5351 28.2519 70.7549 28.8409 71.1925 29.3219C71.6321 29.8019 72.2032 30.0429 72.9078 30.0429C73.7326 30.0429 74.3746 29.7329 74.8338 29.1149C75.2939 28.4959 75.524 27.6799 75.524 26.6659Z" fill="#F5F5F5"/>
<path d="M90.4301 27.772C90.4301 28.904 90.0264 29.825 89.216 30.536C88.3254 31.313 87.0856 31.701 85.4925 31.701C84.0216 31.701 82.8424 31.425 81.9498 30.872L82.4572 29.095C83.4187 29.661 84.4736 29.945 85.623 29.945C86.4478 29.945 87.0897 29.763 87.5509 29.401C88.0101 29.039 88.2391 28.553 88.2391 27.947C88.2391 27.407 88.0501 26.952 87.6711 26.583C87.2941 26.214 86.6645 25.871 85.7852 25.554C83.392 24.685 82.1964 23.412 82.1964 21.738C82.1964 20.644 82.6154 19.747 83.4546 19.049C84.2907 18.35 85.4062 18.001 86.8011 18.001C88.045 18.001 89.0783 18.212 89.9031 18.633L89.3557 20.371C88.5853 19.963 87.7143 19.759 86.7395 19.759C85.9691 19.759 85.3672 19.944 84.9358 20.312C84.5711 20.641 84.3883 21.042 84.3883 21.517C84.3883 22.043 84.5968 22.478 85.0159 22.82C85.3805 23.136 86.0431 23.478 87.0045 23.847C88.1806 24.308 89.0444 24.847 89.6001 25.465C90.1538 26.081 90.4301 26.852 90.4301 27.772Z" fill="#F5F5F5"/>
<path d="M97.6707 23.5076H95.2569V28.1666C95.2569 29.3516 95.6821 29.9436 96.5347 29.9436C96.926 29.9436 97.2506 29.9106 97.5074 29.8446L97.568 31.4636C97.1366 31.6206 96.5685 31.6996 95.8649 31.6996C95.0001 31.6996 94.3242 31.4426 93.8363 30.9296C93.3505 30.4156 93.106 29.5536 93.106 28.3426V23.5056H91.668V21.9056H93.106V20.1486L95.2569 19.5166V21.9056H97.6707V23.5076Z" fill="#F5F5F5"/>
<path d="M108.562 26.6269C108.562 28.1019 108.128 29.3129 107.263 30.2599C106.356 31.2349 105.152 31.7209 103.652 31.7209C102.206 31.7209 101.054 31.2539 100.195 30.3199C99.3367 29.3859 98.9073 28.2069 98.9073 26.7859C98.9073 25.2989 99.349 24.0809 100.235 23.1339C101.12 22.1859 102.313 21.7119 103.814 21.7119C105.26 21.7119 106.424 22.1789 107.302 23.1139C108.143 24.0209 108.562 25.1919 108.562 26.6269ZM106.29 26.6959C106.29 25.8109 106.095 25.0519 105.702 24.4189C105.243 23.6529 104.587 23.2709 103.736 23.2709C102.856 23.2709 102.187 23.6539 101.728 24.4189C101.335 25.0529 101.14 25.8239 101.14 26.7359C101.14 27.6209 101.335 28.3799 101.728 29.0119C102.201 29.7779 102.863 30.1599 103.717 30.1599C104.553 30.1599 105.209 29.7699 105.683 28.9919C106.086 28.3469 106.29 27.5799 106.29 26.6959Z" fill="#F5F5F5"/>
<path d="M115.68 23.7829C115.463 23.7439 115.232 23.7239 114.99 23.7239C114.219 23.7239 113.623 24.0069 113.204 24.5739C112.84 25.0739 112.657 25.7059 112.657 26.4689V31.5039H110.468L110.489 24.9299C110.489 23.8239 110.461 22.8169 110.406 21.9089H112.314L112.394 23.7449H112.455C112.686 23.1139 113.05 22.6059 113.549 22.2249C114.037 21.8819 114.564 21.7109 115.132 21.7109C115.335 21.7109 115.518 21.7249 115.68 21.7499V23.7829Z" fill="#F5F5F5"/>
<path d="M125.474 26.2524C125.474 26.6344 125.448 26.9564 125.394 27.2194H118.824C118.85 28.1674 119.167 28.8924 119.777 29.3924C120.331 29.8394 121.047 30.0634 121.926 30.0634C122.899 30.0634 123.786 29.9124 124.584 29.6094L124.927 31.0894C123.995 31.4854 122.894 31.6824 121.623 31.6824C120.094 31.6824 118.895 31.2444 118.022 30.3694C117.151 29.4944 116.714 28.3194 116.714 26.8454C116.714 25.3984 117.12 24.1934 117.932 23.2324C118.783 22.2064 119.932 21.6934 121.378 21.6934C122.799 21.6934 123.874 22.2064 124.605 23.2324C125.183 24.0474 125.474 25.0554 125.474 26.2524ZM123.386 25.6994C123.4 25.0674 123.257 24.5214 122.96 24.0604C122.581 23.4674 121.999 23.1714 121.215 23.1714C120.499 23.1714 119.917 23.4604 119.472 24.0404C119.107 24.5014 118.891 25.0544 118.824 25.6984H123.386V25.6994Z" fill="#F5F5F5"/>
<path d="M50.3823 10.0087C50.3823 11.1857 50.0197 12.0717 49.2955 12.6667C48.6248 13.2157 47.6716 13.4907 46.4369 13.4907C45.8248 13.4907 45.3009 13.4647 44.8623 13.4127V6.9817C45.4344 6.8917 46.0507 6.8457 46.7163 6.8457C47.8924 6.8457 48.7789 7.0947 49.3767 7.5927C50.0464 8.1557 50.3823 8.9607 50.3823 10.0087ZM49.2473 10.0377C49.2473 9.2747 49.0398 8.6897 48.6248 8.2817C48.2098 7.8747 47.6038 7.6707 46.8057 7.6707C46.4667 7.6707 46.1781 7.6927 45.9388 7.7387V12.6277C46.0713 12.6477 46.3137 12.6567 46.666 12.6567C47.4898 12.6567 48.1256 12.4337 48.5734 11.9877C49.0213 11.5417 49.2473 10.8917 49.2473 10.0377Z" fill="#F5F5F5"/>
<path d="M56.4005 11.037C56.4005 11.762 56.1879 12.356 55.7626 12.822C55.3168 13.301 54.7262 13.54 53.9887 13.54C53.2779 13.54 52.7119 13.311 52.2898 12.851C51.8687 12.392 51.6581 11.813 51.6581 11.115C51.6581 10.385 51.8748 9.78605 52.3103 9.32105C52.7458 8.85605 53.3313 8.62305 54.0688 8.62305C54.7796 8.62305 55.3507 8.85205 55.7832 9.31105C56.194 9.75705 56.4005 10.333 56.4005 11.037ZM55.284 11.071C55.284 10.636 55.1874 10.263 54.9953 9.95205C54.7694 9.57605 54.4479 9.38805 54.0298 9.38805C53.5974 9.38805 53.2687 9.57605 53.0427 9.95205C52.8496 10.263 52.7541 10.642 52.7541 11.09C52.7541 11.525 52.8506 11.898 53.0427 12.209C53.2759 12.585 53.6004 12.773 54.0195 12.773C54.4304 12.773 54.7529 12.582 54.9851 12.199C55.1843 11.882 55.284 11.506 55.284 11.071Z" fill="#F5F5F5"/>
<path d="M64.4697 8.71875L62.9547 13.4327H61.9686L61.341 11.3857C61.1818 10.8747 61.0524 10.3667 60.9517 9.86275H60.9322C60.8387 10.3807 60.7093 10.8877 60.5429 11.3857L59.8763 13.4327H58.8789L57.4542 8.71875H58.5605L59.1079 10.9597C59.2405 11.4897 59.3493 11.9947 59.4366 12.4727H59.4562C59.5363 12.0787 59.6688 11.5768 59.8557 10.9698L60.5429 8.71975H61.4201L62.0785 10.9217C62.2377 11.4587 62.3671 11.9757 62.4668 12.4737H62.4966C62.5695 11.9887 62.6794 11.4717 62.8252 10.9217L63.4128 8.71975H64.4697V8.71875Z" fill="#F5F5F5"/>
<path d="M70.0504 13.4331H68.9739V10.7331C68.9739 9.90112 68.6493 9.48512 67.9981 9.48512C67.6787 9.48512 67.4208 9.59912 67.2206 9.82812C67.0223 10.0571 66.9216 10.3271 66.9216 10.6361V13.4321H65.8452V10.0661C65.8452 9.65212 65.8318 9.20312 65.8062 8.71712H66.7522L66.8025 9.45412H66.8323C66.9576 9.22512 67.1445 9.03612 67.39 8.88512C67.6817 8.70912 68.0084 8.62012 68.3658 8.62012C68.8178 8.62012 69.1937 8.76212 69.4926 9.04712C69.8645 9.39612 70.0504 9.91712 70.0504 10.6091V13.4331Z" fill="#F5F5F5"/>
<path d="M73.0188 13.4327H71.9434V6.55566H73.0188V13.4327Z" fill="#F5F5F5"/>
<path d="M79.3564 11.037C79.3564 11.762 79.1438 12.356 78.7185 12.822C78.2728 13.301 77.6811 13.54 76.9446 13.54C76.2328 13.54 75.6669 13.311 75.2457 12.851C74.8246 12.392 74.614 11.813 74.614 11.115C74.614 10.385 74.8307 9.78605 75.2663 9.32105C75.7018 8.85605 76.2873 8.62305 77.0237 8.62305C77.7356 8.62305 78.3056 8.85205 78.7391 9.31105C79.15 9.75705 79.3564 10.333 79.3564 11.037ZM78.2389 11.071C78.2389 10.636 78.1423 10.263 77.9502 9.95205C77.7253 9.57605 77.4028 9.38805 76.9857 9.38805C76.5523 9.38805 76.2236 9.57605 75.9986 9.95205C75.8055 10.263 75.71 10.642 75.71 11.09C75.71 11.525 75.8065 11.898 75.9986 12.209C76.2318 12.585 76.5564 12.773 76.9755 12.773C77.3863 12.773 77.7078 12.582 77.94 12.199C78.1403 11.882 78.2389 11.506 78.2389 11.071Z" fill="#F5F5F5"/>
<path d="M84.5661 13.433H83.5995L83.5194 12.89H83.4896C83.1588 13.323 82.6874 13.54 82.0752 13.54C81.6181 13.54 81.2483 13.397 80.97 13.113C80.7173 12.855 80.5909 12.534 80.5909 12.153C80.5909 11.577 80.8375 11.138 81.3336 10.834C81.8287 10.53 82.5251 10.381 83.4218 10.388V10.3C83.4218 9.67905 83.0869 9.36905 82.4162 9.36905C81.9386 9.36905 81.5174 9.48605 81.1538 9.71805L80.935 9.03005C81.3849 8.75905 81.9406 8.62305 82.596 8.62305C83.8614 8.62305 84.4962 9.27305 84.4962 10.573V12.309C84.4962 12.78 84.5198 13.155 84.5661 13.433ZM83.4485 11.813V11.086C82.2611 11.066 81.6674 11.383 81.6674 12.036C81.6674 12.282 81.7352 12.466 81.8739 12.589C82.0125 12.712 82.1892 12.773 82.3998 12.773C82.636 12.773 82.8569 12.7 83.0582 12.555C83.2605 12.409 83.3848 12.224 83.431 11.997C83.4423 11.946 83.4485 11.884 83.4485 11.813Z" fill="#F5F5F5"/>
<path d="M90.6829 13.4327H89.7276L89.6773 12.6757H89.6475C89.3424 13.2517 88.8227 13.5397 88.0924 13.5397C87.509 13.5397 87.0231 13.3167 86.6379 12.8707C86.2527 12.4247 86.0607 11.8457 86.0607 11.1347C86.0607 10.3717 86.2692 9.75366 86.6883 9.28166C87.094 8.84166 87.5911 8.62166 88.1828 8.62166C88.833 8.62166 89.288 8.83466 89.5468 9.26166H89.5674V6.55566H90.6449V12.1627C90.6449 12.6217 90.6572 13.0447 90.6829 13.4327ZM89.5674 11.4447V10.6587C89.5674 10.5227 89.5571 10.4127 89.5376 10.3287C89.477 10.0767 89.3466 9.86466 89.1483 9.69366C88.948 9.52266 88.7066 9.43666 88.4283 9.43666C88.0266 9.43666 87.7123 9.59166 87.4812 9.90266C87.2522 10.2137 87.1361 10.6107 87.1361 11.0957C87.1361 11.5617 87.246 11.9397 87.4668 12.2307C87.7 12.5407 88.0143 12.6957 88.4077 12.6957C88.7611 12.6957 89.0435 12.5667 89.2582 12.3077C89.4657 12.0687 89.5674 11.7807 89.5674 11.4447Z" fill="#F5F5F5"/>
<path d="M99.8894 11.037C99.8894 11.762 99.6768 12.356 99.2515 12.822C98.8057 13.301 98.2161 13.54 97.4776 13.54C96.7678 13.54 96.2019 13.311 95.7787 12.851C95.3575 12.392 95.147 11.813 95.147 11.115C95.147 10.385 95.3637 9.78605 95.7992 9.32105C96.2347 8.85605 96.8202 8.62305 97.5587 8.62305C98.2685 8.62305 98.8406 8.85205 99.2721 9.31105C99.6829 9.75705 99.8894 10.333 99.8894 11.037ZM98.7739 11.071C98.7739 10.636 98.6773 10.263 98.4852 9.95205C98.2582 9.57605 97.9378 9.38805 97.5187 9.38805C97.0873 9.38805 96.7586 9.57605 96.5316 9.95205C96.3385 10.263 96.243 10.642 96.243 11.09C96.243 11.525 96.3395 11.898 96.5316 12.209C96.7648 12.585 97.0893 12.773 97.5084 12.773C97.9193 12.773 98.2428 12.582 98.475 12.199C98.6732 11.882 98.7739 11.506 98.7739 11.071Z" fill="#F5F5F5"/>
<path d="M105.677 13.4331H104.602V10.7331C104.602 9.90112 104.277 9.48512 103.625 9.48512C103.306 9.48512 103.048 9.59912 102.849 9.82812C102.649 10.0571 102.55 10.3271 102.55 10.6361V13.4321H101.472V10.0661C101.472 9.65212 101.46 9.20312 101.434 8.71712H102.379L102.43 9.45412H102.459C102.586 9.22512 102.773 9.03612 103.017 8.88512C103.31 8.70912 103.635 8.62012 103.994 8.62012C104.445 8.62012 104.821 8.76212 105.12 9.04712C105.493 9.39612 105.677 9.91712 105.677 10.6091V13.4331Z" fill="#F5F5F5"/>
<path d="M112.922 9.50392H111.737V11.7939C111.737 12.3759 111.947 12.6669 112.364 12.6669C112.557 12.6669 112.717 12.6509 112.844 12.6179L112.872 13.4129C112.659 13.4909 112.38 13.5299 112.035 13.5299C111.61 13.5299 111.279 13.4039 111.04 13.1519C110.8 12.8999 110.681 12.4759 110.681 11.8809V9.50392H109.973V8.71892H110.681V7.85492L111.736 7.54492V8.71792H112.921V9.50392H112.922Z" fill="#F5F5F5"/>
<path d="M118.621 13.4327H117.543V10.7527C117.543 9.90766 117.219 9.48466 116.568 9.48466C116.069 9.48466 115.728 9.72966 115.541 10.2197C115.509 10.3227 115.491 10.4487 115.491 10.5967V13.4317H114.416V6.55566H115.491V9.39666H115.512C115.85 8.87966 116.336 8.62166 116.966 8.62166C117.412 8.62166 117.781 8.76366 118.073 9.04866C118.438 9.40366 118.621 9.93166 118.621 10.6297V13.4327Z" fill="#F5F5F5"/>
<path d="M124.499 10.8523C124.499 11.0403 124.485 11.1983 124.459 11.3273H121.231C121.245 11.7933 121.399 12.1483 121.698 12.3943C121.971 12.6143 122.324 12.7243 122.755 12.7243C123.233 12.7243 123.668 12.6503 124.061 12.5013L124.229 13.2293C123.77 13.4233 123.23 13.5203 122.604 13.5203C121.854 13.5203 121.264 13.3053 120.836 12.8753C120.407 12.4453 120.194 11.8683 120.194 11.1443C120.194 10.4333 120.393 9.84128 120.792 9.36928C121.209 8.86528 121.773 8.61328 122.485 8.61328C123.181 8.61328 123.71 8.86528 124.068 9.36928C124.356 9.76928 124.499 10.2643 124.499 10.8523ZM123.472 10.5813C123.48 10.2703 123.409 10.0023 123.263 9.77628C123.077 9.48528 122.792 9.33928 122.407 9.33928C122.056 9.33928 121.769 9.48128 121.55 9.76628C121.371 9.99328 121.266 10.2643 121.231 10.5813H123.472Z" fill="#F5F5F5"/>
</svg>
