<svg width="17" height="16" viewBox="0 0 17 16" fill="none" xmlns="http://www.w3.org/2000/svg">
<g id="instagram-seeklogo.com 1">
<g clip-path="url(#clip0_468_1175)">
<g id="Group">
<path id="Vector" d="M8.29997 1.78339C10.465 1.78339 10.7214 1.79109 11.5764 1.82758C12.367 1.86132 12.7963 1.98486 13.082 2.08868C13.4605 2.22625 13.7306 2.39061 14.0143 2.65596C14.2981 2.92131 14.4738 3.17395 14.6209 3.52789C14.7319 3.79514 14.864 4.19667 14.9001 4.93601C14.9391 5.73567 14.9473 5.97549 14.9473 8.00034C14.9473 10.0252 14.9391 10.265 14.9001 11.0646C14.864 11.804 14.7319 12.2055 14.6209 12.4728C14.4738 12.8267 14.2981 13.0794 14.0143 13.3447C13.7306 13.6101 13.4605 13.7744 13.082 13.912C12.7963 14.0158 12.367 14.1394 11.5764 14.1731C10.7215 14.2096 10.4651 14.2173 8.29997 14.2173C6.13481 14.2173 5.87838 14.2096 5.02352 14.1731C4.23297 14.1394 3.80364 14.0158 3.51792 13.912C3.13944 13.7744 2.86931 13.6101 2.58559 13.3447C2.30187 13.0794 2.12613 12.8267 1.97907 12.4728C1.86803 12.2055 1.73594 11.804 1.69986 11.0647C1.66085 10.265 1.65261 10.0252 1.65261 8.00034C1.65261 5.97549 1.66085 5.73567 1.69986 4.93604C1.73594 4.19667 1.86803 3.79514 1.97907 3.52789C2.12613 3.17395 2.30187 2.92131 2.58559 2.65596C2.86931 2.39061 3.13944 2.22625 3.51792 2.08868C3.80364 1.98486 4.23297 1.86132 5.02349 1.82758C5.87851 1.79109 6.13494 1.78339 8.29997 1.78339ZM8.29997 0.416992C6.09786 0.416992 5.82177 0.425722 4.95693 0.462627C4.09386 0.499472 3.50447 0.627647 2.98868 0.815122C2.45549 1.00892 2.00331 1.26822 1.55254 1.6898C1.10178 2.11138 0.824525 2.53428 0.617311 3.03295C0.416856 3.51534 0.279808 4.06657 0.240412 4.87376C0.200952 5.68257 0.19165 5.94082 0.19165 8.00034C0.19165 10.0599 0.200952 10.3181 0.240412 11.1269C0.279808 11.9341 0.416856 12.4853 0.617311 12.9677C0.824525 13.4664 1.10178 13.8893 1.55254 14.3109C2.00331 14.7325 2.45549 14.9918 2.98868 15.1856C3.50447 15.373 4.09386 15.5012 4.95693 15.5381C5.82177 15.575 6.09786 15.5837 8.29997 15.5837C10.5021 15.5837 10.7782 15.575 11.643 15.5381C12.5061 15.5012 13.0955 15.373 13.6112 15.1856C14.1444 14.9918 14.5966 14.7325 15.0474 14.3109C15.4982 13.8893 15.7754 13.4664 15.9826 12.9677C16.1831 12.4853 16.3201 11.9341 16.3595 11.1269C16.399 10.3181 16.4083 10.0599 16.4083 8.00034C16.4083 5.94082 16.399 5.68257 16.3595 4.87376C16.3201 4.06657 16.1831 3.51534 15.9826 3.03295C15.7754 2.53428 15.4982 2.11138 15.0474 1.6898C14.5966 1.26822 14.1444 1.00892 13.6112 0.815122C13.0955 0.627647 12.5061 0.499472 11.643 0.462627C10.7782 0.425722 10.5021 0.416992 8.29997 0.416992ZM8.29997 4.10618C6.0004 4.10618 4.13621 5.84967 4.13621 8.00034C4.13621 10.151 6.0004 11.8945 8.29997 11.8945C10.5995 11.8945 12.4637 10.151 12.4637 8.00034C12.4637 5.84967 10.5995 4.10618 8.29997 4.10618ZM8.29997 10.5281C6.80727 10.5281 5.59717 9.39639 5.59717 8.00034C5.59717 6.6043 6.80727 5.47255 8.29997 5.47255C9.79266 5.47255 11.0028 6.6043 11.0028 8.00034C11.0028 9.39639 9.79266 10.5281 8.29997 10.5281ZM13.6012 3.95233C13.6012 4.45492 13.1656 4.86235 12.6282 4.86235C12.0908 4.86235 11.6552 4.45492 11.6552 3.95233C11.6552 3.44975 12.0908 3.04235 12.6282 3.04235C13.1656 3.04235 13.6012 3.44975 13.6012 3.95233Z" fill="#F5F5F5"/>
</g>
</g>
</g>
<defs>
<clipPath id="clip0_468_1175">
<rect x="0.19165" y="0.416992" width="16.2167" height="15.1667" rx="4" fill="white"/>
</clipPath>
</defs>
</svg>
