<svg width="64" height="40" viewBox="0 0 64 40" fill="none" xmlns="http://www.w3.org/2000/svg">
<path id="Vector" d="M30.2404 36.2778C30.4054 36.3889 30.5703 36.5556 30.7353 36.6667C27.6013 38.7778 23.8074 40 19.7937 40C8.85211 40 -0.00012207 31.0556 -0.00012207 20C-0.00012207 8.94444 8.85211 0 19.7937 0C23.8624 0 27.6013 1.22222 30.7353 3.33333C30.5703 3.44444 30.4054 3.61112 30.2404 3.72223C25.5669 7.83334 22.9277 13.7222 22.9277 20C22.9277 26.2778 25.5669 32.1667 30.2404 36.2778ZM44.2061 0C40.1373 0 36.3985 1.22222 33.2645 3.33333C33.4294 3.44444 33.5944 3.61112 33.7593 3.72223C38.4329 7.83334 41.072 13.7222 41.072 20C41.072 26.2222 38.3779 32.1667 33.7593 36.2778C33.5944 36.3889 33.4294 36.5556 33.2645 36.6667C36.3985 38.7778 40.1923 40 44.2061 40C55.1476 40 63.9999 31.0556 63.9999 20C63.9999 9 55.1476 0 44.2061 0ZM31.9999 4.33334C31.725 4.55557 31.505 4.72222 31.2301 4.94444C27.0514 8.61111 24.4123 14 24.4123 20.0556C24.4123 26.0556 27.0514 31.5 31.2301 35.1667C31.4501 35.3889 31.725 35.6111 31.9999 35.7778C32.2748 35.5556 32.4947 35.3889 32.7696 35.1667C36.9483 31.5 39.5875 26.1111 39.5875 20.0556C39.5875 14.0556 36.9483 8.61111 32.7696 4.94444C32.4947 4.72222 32.2748 4.50001 31.9999 4.33334Z" fill="#F5F5F5"/>
</svg>
