<svg width="170" height="25" viewBox="0 0 170 25" fill="none" xmlns="http://www.w3.org/2000/svg">
<path d="M13.96 7.64V11.96H9.84V16.48H5V11.96H0.88V7.64H5V3.12H9.84V7.64H13.96ZM34.6359 19.16V24H18.3959V19.16H24.0759V7.04C23.8359 7.36 23.4626 7.69333 22.9559 8.04C22.4493 8.36 21.8759 8.66667 21.2359 8.96C20.5959 9.25333 19.9559 9.49333 19.3159 9.68C18.6759 9.86667 18.1026 9.96 17.5959 9.96V4.96C18.0759 4.96 18.6493 4.81333 19.3159 4.52C20.0093 4.2 20.6893 3.82667 21.3559 3.4C22.0493 2.97333 22.6359 2.56 23.1159 2.16C23.6226 1.73333 23.9426 1.4 24.0759 1.16H29.5559V19.16H34.6359ZM58.2016 12.28C58.2016 14.6267 57.7482 16.72 56.8416 18.56C55.9616 20.3733 54.7349 21.8 53.1616 22.84C51.6149 23.88 49.8549 24.4 47.8816 24.4C45.9082 24.4 44.1349 23.88 42.5616 22.84C41.0149 21.8 39.7882 20.3733 38.8816 18.56C38.0016 16.72 37.5616 14.6267 37.5616 12.28C37.5616 9.93333 38.0016 7.85333 38.8816 6.04C39.7882 4.2 41.0149 2.76 42.5616 1.72C44.1349 0.653333 45.9082 0.12 47.8816 0.12C49.8549 0.12 51.6149 0.653333 53.1616 1.72C54.7349 2.76 55.9616 4.2 56.8416 6.04C57.7482 7.85333 58.2016 9.93333 58.2016 12.28ZM52.8016 12.28C52.8016 10.84 52.5882 9.58667 52.1616 8.52C51.7616 7.42667 51.1882 6.57333 50.4416 5.96C49.6949 5.34667 48.8416 5.04 47.8816 5.04C46.8949 5.04 46.0282 5.34667 45.2816 5.96C44.5349 6.57333 43.9482 7.42667 43.5216 8.52C43.1216 9.58667 42.9216 10.84 42.9216 12.28C42.9216 13.72 43.1216 14.9733 43.5216 16.04C43.9482 17.1067 44.5349 17.9467 45.2816 18.56C46.0282 19.1733 46.8949 19.48 47.8816 19.48C48.8416 19.48 49.6816 19.1733 50.4016 18.56C51.1482 17.9467 51.7349 17.1067 52.1616 16.04C52.5882 14.9467 52.8016 13.6933 52.8016 12.28ZM104.781 24H99.4213V12.24C99.4213 10.5867 99.1279 9.37333 98.5413 8.6C97.9813 7.8 97.1946 7.4 96.1813 7.4C95.1413 7.4 94.1413 7.81333 93.1813 8.64C92.2479 9.44 91.5813 10.4933 91.1813 11.8V24H85.8213V12.24C85.8213 10.56 85.5279 9.33333 84.9413 8.56C84.3813 7.78667 83.5946 7.4 82.5813 7.4C81.5413 7.4 80.5413 7.8 79.5813 8.6C78.6479 9.4 77.9813 10.4533 77.5813 11.76V24H72.2213V3.04H77.0613V6.92C77.8613 5.56 78.9279 4.52 80.2613 3.8C81.5946 3.05333 83.1279 2.68 84.8613 2.68C86.5946 2.68 87.9413 3.10666 88.9013 3.96C89.8879 4.81333 90.5146 5.86667 90.7813 7.12C91.6346 5.68 92.7146 4.58667 94.0213 3.84C95.3546 3.06667 96.8479 2.68 98.5013 2.68C99.8079 2.68 100.861 2.92 101.661 3.4C102.488 3.85333 103.128 4.48 103.581 5.28C104.035 6.05333 104.341 6.93333 104.501 7.92C104.688 8.90667 104.781 9.90667 104.781 10.92V24ZM119.128 24.4C117.421 24.4 115.888 24.12 114.528 23.56C113.168 22.9733 112.008 22.1733 111.048 21.16C110.114 20.1467 109.394 18.9867 108.888 17.68C108.381 16.3733 108.128 15 108.128 13.56C108.128 12.0933 108.381 10.7067 108.888 9.4C109.394 8.09333 110.114 6.93333 111.048 5.92C112.008 4.90667 113.168 4.12 114.528 3.56C115.888 2.97333 117.421 2.68 119.128 2.68C120.834 2.68 122.354 2.97333 123.688 3.56C125.048 4.12 126.208 4.90667 127.168 5.92C128.128 6.93333 128.848 8.09333 129.328 9.4C129.834 10.7067 130.088 12.0933 130.088 13.56C130.088 15 129.834 16.3733 129.328 17.68C128.848 18.9867 128.128 20.1467 127.168 21.16C126.234 22.1733 125.088 22.9733 123.728 23.56C122.368 24.12 120.834 24.4 119.128 24.4ZM113.648 13.56C113.648 14.7867 113.888 15.88 114.368 16.84C114.848 17.7733 115.501 18.5067 116.328 19.04C117.154 19.5733 118.088 19.84 119.128 19.84C120.141 19.84 121.061 19.5733 121.888 19.04C122.714 18.48 123.368 17.7333 123.848 16.8C124.354 15.84 124.608 14.7467 124.608 13.52C124.608 12.32 124.354 11.24 123.848 10.28C123.368 9.32 122.714 8.57333 121.888 8.04C121.061 7.50667 120.141 7.24 119.128 7.24C118.088 7.24 117.154 7.52 116.328 8.08C115.501 8.61333 114.848 9.36 114.368 10.32C113.888 11.2533 113.648 12.3333 113.648 13.56ZM146.186 7.68C144.559 7.68 143.106 8 141.826 8.64C140.546 9.25333 139.626 10.1467 139.066 11.32V24H133.706V3.04H138.626V7.52C139.372 6.08 140.319 4.94667 141.466 4.12C142.612 3.29333 143.826 2.84 145.106 2.76C145.399 2.76 145.626 2.76 145.786 2.76C145.946 2.76 146.079 2.77333 146.186 2.8V7.68ZM158.621 24.4C156.941 24.4 155.421 24.12 154.061 23.56C152.701 22.9733 151.541 22.1867 150.581 21.2C149.621 20.1867 148.874 19.04 148.341 17.76C147.834 16.4533 147.581 15.08 147.581 13.64C147.581 11.64 148.021 9.81333 148.901 8.16C149.808 6.50667 151.088 5.18667 152.741 4.2C154.421 3.18666 156.394 2.68 158.661 2.68C160.954 2.68 162.914 3.18666 164.541 4.2C166.168 5.18667 167.408 6.50667 168.261 8.16C169.141 9.78667 169.581 11.5467 169.581 13.44C169.581 13.76 169.568 14.0933 169.541 14.44C169.514 14.76 169.488 15.0267 169.461 15.24H153.261C153.368 16.3067 153.674 17.24 154.181 18.04C154.714 18.84 155.381 19.4533 156.181 19.88C157.008 20.28 157.888 20.48 158.821 20.48C159.888 20.48 160.888 20.2267 161.821 19.72C162.781 19.1867 163.434 18.4933 163.781 17.64L168.381 18.92C167.874 19.9867 167.141 20.9333 166.181 21.76C165.248 22.5867 164.141 23.24 162.861 23.72C161.581 24.1733 160.168 24.4 158.621 24.4ZM153.141 11.84H164.101C163.994 10.7733 163.688 9.85333 163.181 9.08C162.701 8.28 162.061 7.66667 161.261 7.24C160.461 6.78667 159.568 6.56 158.581 6.56C157.621 6.56 156.741 6.78667 155.941 7.24C155.168 7.66667 154.528 8.28 154.021 9.08C153.541 9.85333 153.248 10.7733 153.141 11.84Z" fill="#F5F5F5"/>
</svg>
