<svg width="85" height="30" viewBox="0 0 85 30" fill="none" xmlns="http://www.w3.org/2000/svg">
<g id="Skrill">
<g id="Page-1">
<g id="skrill-logo-web-1-rgb">
<path id="Fill-1" fill-rule="evenodd" clip-rule="evenodd" d="M61.0558 7.45853C62.9827 7.45853 64.5446 5.89738 64.5446 3.97228C64.5446 2.04605 62.9827 0.483398 61.0558 0.483398C59.131 0.483398 57.5699 2.04605 57.5699 3.97228C57.5699 5.89738 59.131 7.45853 61.0558 7.45853ZM34.3355 9.34128C34.1781 9.73672 33.045 12.9374 30.3047 16.2546V2.07079L23.0031 3.51386V29.2235H30.3047V21.2765C32.4194 24.4483 33.4637 29.2235 33.4637 29.2235H42.2095C41.3444 25.6271 37.5602 18.9957 37.5602 18.9957C40.9565 14.6897 42.4483 10.1014 42.6855 9.34128H34.3355ZM53.5311 9.07291C46.9912 9.28281 43.6713 12.2169 43.6713 18.0496V29.2235H50.8061V20.1115C50.8061 16.6189 51.2634 15.1218 55.4079 14.979V9.17523C54.7103 9.02718 53.5311 9.07291 53.5311 9.07291ZM10.7575 12.1723C9.86317 12.1135 7.79263 11.9797 7.79263 10.1157C7.79263 7.86634 10.7736 7.86634 11.8917 7.86634C13.8577 7.86634 16.4039 8.44732 18.2222 8.99119C18.2222 8.99119 19.2364 9.34878 20.0997 9.71498L20.1799 9.73672V3.57646L20.0697 3.54385C17.9238 2.79308 15.4286 2.07079 10.8025 2.07079C2.82619 2.07079 0 6.7175 0 10.6982C0 12.9928 0.983542 18.3933 10.1184 19.0163C10.8928 19.0639 12.948 19.1823 12.948 21.1086C12.948 22.6989 11.2654 23.6368 8.43545 23.6368C5.33415 23.6368 2.32579 22.8459 0.498518 22.0959V28.4405C3.234 29.1576 6.31769 29.5159 9.93176 29.5159C17.7308 29.5159 21.2238 25.1196 21.2238 20.7622C21.2238 15.8216 17.3151 12.6116 10.7575 12.1723ZM57.5189 29.2235H64.596V9.36377H57.5189V29.2235ZM77.9218 3.33695V29.2235H85V2.07079L77.9218 3.33695ZM67.5938 3.33695L74.6653 2.07079V29.2235H67.5938V3.33695Z" fill="#F5F5F5"/>
</g>
</g>
</g>
</svg>
