<svg width="16" height="15" viewBox="0 0 16 15" fill="none" xmlns="http://www.w3.org/2000/svg">
<g clip-path="url(#clip0_468_1154)">
<path d="M15.5187 3.12351C14.9695 3.34883 14.3843 3.49818 13.7742 3.57069C14.4019 3.2202 14.8809 2.66943 15.1061 2.00556C14.5209 2.33188 13.8748 2.56238 13.1862 2.69101C12.6305 2.13764 11.8386 1.79492 10.9746 1.79492C9.29834 1.79492 7.94884 3.0674 7.94884 4.62735C7.94884 4.8518 7.96915 5.06762 8.01899 5.27308C5.50184 5.15827 3.27453 4.02996 1.77827 2.31116C1.51705 2.73504 1.36383 3.2202 1.36383 3.74248C1.36383 4.72317 1.90381 5.5925 2.70871 6.09579C2.22226 6.08716 1.74504 5.95507 1.34075 5.74702C1.34075 5.75566 1.34075 5.76688 1.34075 5.7781C1.34075 7.15417 2.39025 8.29716 3.76652 8.56046C3.52006 8.62348 3.25146 8.65369 2.9727 8.65369C2.77886 8.65369 2.58317 8.64333 2.39948 8.60535C2.79178 9.72675 3.90497 10.5512 5.22862 10.5779C4.1985 11.3316 2.89055 11.7857 1.47459 11.7857C1.22629 11.7857 0.988146 11.7753 0.75 11.7468C2.09119 12.5557 3.68067 13.0176 5.39477 13.0176C10.9663 13.0176 14.0123 8.70117 14.0123 4.95971C14.0123 4.83454 14.0077 4.71368 14.0013 4.59368C14.6022 4.19484 15.1071 3.69673 15.5187 3.12351Z" fill="#F5F5F5"/>
</g>
<defs>
<clipPath id="clip0_468_1154">
<rect width="14.7687" height="13.8125" fill="white" transform="translate(0.75 0.5)"/>
</clipPath>
</defs>
</svg>
