<svg width="181" height="38" viewBox="0 0 181 38" fill="none" xmlns="http://www.w3.org/2000/svg">
<path d="M91.462 37.0117H94.7086V1.07317H91.462V37.0117Z" fill="#EA293C"/>
<path d="M136.195 1.07324H146.56V4.0682H143.035V37.0117H139.772V4.0682H136.195V1.07324Z" fill="#EA293C"/>
<path d="M88.4922 1.07324V37.0117H85.0907L80.2253 15.1818V37.0117H77.0353V1.07324H79.9704L85.3015 24.874V1.07324H88.4922Z" fill="#EA293C"/>
<path d="M17.8572 1.07324V37.0117H14.6663V6.20513L10.7277 37.0117H8.06864L4.19415 6.20513V37.0117H0.981079V1.07324H6.41573L9.5276 22.737L12.463 1.07324H17.8572Z" fill="#EA293C"/>
<path d="M57.4208 37.0208C59.9467 33.5691 61.4392 29.308 61.4392 24.6904C61.4392 13.2046 52.186 3.8911 40.7731 3.8911C29.3586 3.8911 20.1045 13.2046 20.1045 24.6904C20.1045 29.3047 21.5957 33.5717 24.1193 37.0208H28.4179C25.2973 33.8535 23.3693 29.5039 23.3693 24.6904C23.3693 15.0189 31.1606 7.17632 40.7731 7.17632C50.3833 7.17632 58.176 15.0189 58.176 24.6904C58.176 29.4973 56.2516 33.8535 53.1371 37.0208H57.4208Z" fill="#EA293C"/>
<path d="M154.009 25.6674L151.848 5.85423L149.858 25.6674H154.009ZM158.319 37.0117H155.143L154.305 28.916H149.552L148.777 37.0117H145.539L149.198 1.07324H154.15L158.319 37.0117Z" fill="#EA293C"/>
<path d="M119.513 32.4432C119.513 34.0648 118.568 34.8904 117.484 34.8904C116.401 34.8904 115.455 34.0648 115.455 32.4432V5.30084C115.455 3.68247 116.401 2.85529 117.484 2.85529C118.568 2.85529 119.513 3.68247 119.513 5.30084L119.506 6.59843V13.3739H122.773V8.14997L122.765 6.64137C122.742 2.16171 121.002 0.0280609 117.371 0.0280609C114.136 0.0280609 112.031 2.33666 112.031 5.88036L112.034 7.19992V29.6962L112.031 31.1508C112.031 35.7536 113.809 38.001 117.45 38.001C121.08 38.001 122.773 35.7946 122.773 31.0558V17.9811H116.774V21.1283H119.506V31.2513L119.513 32.4432Z" fill="#EA293C"/>
<path d="M132.903 31.5807V22.2374L125.459 16.6429V6.20215C125.459 2.09889 127.296 -0.00104523 130.89 -0.00104523C134.536 -0.00104523 136.195 2.08287 136.22 6.6942L136.228 8.12815V13.4232H132.903V6.31974L132.893 5.30092C132.893 3.68255 131.957 2.85537 130.887 2.85537C129.813 2.85537 128.877 3.68255 128.877 5.30092V15.0851L136.228 20.6702V31.4758C136.228 35.7029 134.36 37.9634 130.868 37.9634C127.331 37.9634 125.49 35.829 125.468 31.7101L125.459 30.2876V23.2556H128.877V32.4432C128.877 34.0649 129.813 34.8905 130.887 34.8905C131.957 34.8905 132.893 34.0649 132.893 32.4432L132.903 31.5807Z" fill="#EA293C"/>
<path d="M66.8682 3.9024V18.1335H68.0139C70.1167 18.1335 71.1062 17.1621 71.1062 15.0993V7.77536C71.1062 4.82527 70.4282 3.9024 68.258 3.9024H66.8682ZM75.0594 37.0117H71.8061C71.3601 35.8006 71.1648 34.6661 71.1443 33.1453L71.1183 31.3055L71.1062 30.3761V23.3598C71.1062 21.8869 70.2159 21.2169 69.188 21.2169H66.8682V37.0117H63.6798V1.07324H67.8388C72.5108 1.07324 74.3092 2.79184 74.3092 7.39142V14.1384C74.3092 17.1616 73.8062 18.4306 71.4561 19.3031C71.4894 19.3139 71.5219 19.326 71.5554 19.3365C73.7744 19.9888 74.2717 20.8373 74.2968 23.67L74.3092 24.9755V31.5368C74.3092 33.9263 74.4872 35.222 75.0594 37.0117Z" fill="#EA293C"/>
<path d="M162.355 3.9024V18.1335H163.503C165.607 18.1335 166.595 17.1621 166.595 15.0993V7.77536C166.595 4.82527 165.917 3.9024 163.744 3.9024H162.355ZM170.547 37.0117H167.293C166.847 35.8006 166.653 34.6661 166.631 33.1453L166.604 31.3055L166.595 30.3761V23.3598C166.595 21.8869 165.703 21.2169 164.674 21.2169H162.355V37.0117H159.167V1.07324H163.326C168 1.07324 169.795 2.79184 169.795 7.39142V14.1384C169.795 17.1616 169.294 18.4306 166.945 19.3031C166.976 19.3139 167.011 19.326 167.042 19.3365C169.259 19.9888 169.761 20.8373 169.784 23.67L169.795 24.9755V31.5368C169.795 33.9263 169.975 35.222 170.547 37.0117Z" fill="#EA293C"/>
<path d="M109.086 1.07324V37.0117H105.683L100.823 15.1818V37.0117H97.631V1.07324H100.568L105.895 24.874V1.07324H109.086Z" fill="#EA293C"/>
<path d="M173.352 4.7037C173.352 2.70071 174.968 1.07152 176.958 1.07152C178.949 1.07152 180.565 2.70071 180.565 4.7037C180.565 6.70694 178.949 8.33647 176.958 8.33647C174.968 8.33647 173.352 6.70694 173.352 4.7037ZM172.937 4.7037C172.937 6.93598 174.74 8.7522 176.958 8.7522C179.175 8.7522 180.981 6.93598 180.981 4.7037C180.981 2.47201 179.175 0.65579 176.958 0.65579C174.74 0.65579 172.937 2.47201 172.937 4.7037Z" fill="#EA293C"/>
<path d="M176.078 4.57003H177.264C177.755 4.57003 178.1 4.41177 178.1 3.88006C178.1 3.3517 177.755 3.1895 177.264 3.1895H176.078V4.57003ZM175.553 2.72857H177.346C177.971 2.72857 178.624 2.96935 178.624 3.88006C178.624 4.39047 178.395 4.88319 177.704 4.99624L178.798 6.72339H178.163L177.093 5.02928H176.078V6.72339H175.553V2.72857Z" fill="#EA293C"/>
</svg>
