<svg width="188" height="28" viewBox="0 0 188 28" fill="none" xmlns="http://www.w3.org/2000/svg">
<path d="M0.961914 13.9701C0.961914 4.81147 7.5251 0.24707 13.6706 0.24707C18.414 0.24707 21.457 2.84251 22.1133 4.30432H22.2624V0.754229H29.0643V27.2158H22.2923V23.6657H22.1431C21.4868 25.1275 18.4439 27.723 13.7005 27.723C7.5251 27.6931 0.961914 23.1287 0.961914 13.9701ZM22.4414 13.9701C22.6801 10.0024 19.667 6.60143 15.6993 6.36277C15.4904 6.36277 15.2816 6.33293 15.0429 6.36277C11.0454 6.27327 7.76376 9.43553 7.64443 13.4033C7.64443 13.5823 7.64443 13.7911 7.64443 13.9701C7.40577 17.9378 10.4487 21.3686 14.4463 21.5774C14.6253 21.5774 14.8341 21.5774 15.0131 21.5774C18.9808 21.6968 22.2923 18.5643 22.4116 14.5966C22.4414 14.3878 22.4414 14.1789 22.4414 13.9701ZM31.7791 20.2648L37.2086 18.803C37.6561 20.8614 39.4759 22.3232 41.594 22.3232C43.3243 22.3232 44.9949 21.4581 44.9949 19.5786C44.9949 18.2958 44.1894 17.4009 42.1012 16.5954L38.8494 15.3722C34.464 13.7911 32.6442 10.9868 32.6442 7.79473C32.5845 3.08117 36.7611 0.24707 41.7133 0.24707C46.4866 0.24707 50.0068 2.93201 50.872 7.01909L45.5618 8.39139C45.2038 6.75059 43.742 5.55728 42.0415 5.58712C40.2515 5.58712 39.2074 6.5716 39.2074 7.88423C39.2074 9.01788 39.8637 9.97252 41.952 10.6885L44.9353 11.8221C48.187 12.9856 51.7371 14.9247 51.7371 19.6085C51.7371 24.8889 47.2025 27.7528 41.6835 27.7528C36.433 27.6931 32.5547 25.1573 31.7791 20.2648ZM54.5712 0.754229H61.4029V27.2158H54.5712V0.754229ZM64.2967 13.9701C64.2967 4.81147 70.8598 0.24707 77.0054 0.24707C81.7488 0.24707 84.7917 2.84251 85.4779 4.30432H85.627V0.754229H92.4289V27.2158H85.5972V23.6657H85.4779C84.8215 25.1275 81.7786 27.723 77.0352 27.723C70.8599 27.6931 64.2967 23.1287 64.2967 13.9701ZM85.7762 13.9701C85.7762 9.88302 82.4648 6.60143 78.4075 6.5716C74.3204 6.5716 71.0388 9.88302 71.009 13.9403C71.009 18.0273 74.3204 21.3089 78.3777 21.3388C82.4648 21.3686 85.7762 18.0572 85.7762 13.9701Z" fill="#380000"/>
<path d="M116.152 0.265933C123.729 0.265933 129.875 6.41146 129.875 13.989C129.875 21.5665 123.729 27.712 116.152 27.712C108.574 27.712 102.429 21.5665 102.429 13.989C102.429 6.41146 108.545 0.265933 116.152 0.265933ZM157.709 11.662V27.2347H150.907V12.7957C150.907 8.91741 148.819 6.38163 145.269 6.38163C141.718 6.38163 139.63 8.91741 139.63 12.7957V27.2347H132.798V0.773092H139.6V4.38284C141.36 1.66806 144.433 0.086937 147.685 0.265933C153.115 0.265933 157.709 3.6072 157.709 11.662ZM186.855 16.6441H167.046C168.031 20.2538 171.163 22.1333 175.131 22.1333C177.607 22.2228 180.053 21.3576 181.933 19.7467L185.006 23.0581C182.351 26.1607 178.413 27.8612 174.326 27.7418C167.046 27.7418 160.543 22.7598 160.543 14.0188C160.543 5.24799 167.166 0.295768 173.938 0.295768C180.74 0.265935 188.317 4.97949 186.855 16.6441ZM166.957 11.662H180.799C180.382 7.87327 177.219 6.02363 174.027 6.02363C170.626 5.9043 167.613 8.29092 166.957 11.662Z" fill="#FF6D00"/>
</svg>
