<svg width="179" height="34" viewBox="0 0 179 34" fill="none" xmlns="http://www.w3.org/2000/svg">
<path d="M0 0.533936H13.123C15.6226 0.533936 17.4973 1.15789 18.886 2.1978C20.4135 3.4457 21.2467 5.24822 21.2467 7.46671C21.2467 10.0318 20.2052 11.6264 18.1222 12.597V12.7356C20.8995 13.6369 22.4965 16.1327 22.4965 19.1138C22.4965 21.9562 21.3856 24.1747 19.5803 25.5612C18.0528 26.6705 16.1086 27.1558 13.4701 27.1558H0V0.533936ZM11.8037 10.9331C13.1924 10.9331 14.2339 10.1705 14.2339 8.57595C14.2339 7.05074 13.1924 6.28814 11.7343 6.28814H7.2211V10.8638H11.8037V10.9331ZM12.4286 21.2629C14.0256 21.2629 15.206 20.2923 15.206 18.5591C15.206 16.6873 13.9562 15.8554 12.4286 15.8554H7.29054V21.3323H12.4286V21.2629Z" fill="black"/>
<path d="M23.6768 0.533936H30.5507V27.2251H23.6768V0.533936Z" fill="black"/>
<path d="M31.9395 17.7273C31.9395 11.6958 35.8277 7.6748 41.8685 7.6748C47.9092 7.6748 51.7281 11.7651 51.7281 17.7273C51.7281 23.7588 47.9092 27.7798 41.8685 27.7798C35.8277 27.7798 31.9395 23.7588 31.9395 17.7273ZM44.8541 17.7273C44.8541 14.3996 43.8126 12.3198 41.7296 12.3198C39.6466 12.3198 38.6745 14.3996 38.6745 17.7273C38.6745 21.0551 39.6466 23.2042 41.7296 23.2042C43.8126 23.1349 44.8541 21.0551 44.8541 17.7273Z" fill="black"/>
<path d="M52.4917 17.7271C52.4917 11.6956 56.38 7.67456 62.4207 7.67456C68.4614 7.67456 72.2109 11.6956 72.2109 17.7271C72.2109 23.7586 68.392 27.7796 62.3513 27.7796C56.38 27.7796 52.4917 23.7586 52.4917 17.7271ZM65.4064 17.7271C65.4064 14.3993 64.3648 12.3195 62.2818 12.3195C60.1988 12.3195 59.2268 14.3993 59.2268 17.7271C59.2268 21.0548 60.1988 23.204 62.2818 23.204C64.3648 23.1346 65.4064 21.0548 65.4064 17.7271Z" fill="black"/>
<path d="M73.5996 8.16009H79.9875V11.0025H80.1264C81.3762 8.78404 83.112 7.60547 85.8894 7.60547C88.3195 7.60547 90.1248 8.78404 91.0275 10.8639H91.1663C92.6939 8.36807 94.7074 7.60547 97.0682 7.60547C101.512 7.60547 103.387 10.8639 103.387 15.2315V27.1559H96.721V16.4101C96.721 14.4689 96.0961 13.221 94.4297 13.221C92.7633 13.221 91.9301 14.7462 91.9301 16.8261V27.1559H85.2645V16.4101C85.2645 14.4689 84.6396 13.221 82.9732 13.221C81.3067 13.221 80.4735 14.7462 80.4735 16.8261V27.1559H73.5996V8.16009Z" fill="black"/>
<path d="M111.788 24.66H111.719V27.1558H105.331V0.533936H111.997V10.1012H112.136C113.385 8.4373 115.121 7.53604 117.551 7.53604C122.342 7.53604 125.12 11.8344 125.12 17.5886C125.12 24.036 122.134 27.7797 117.135 27.7797C115.052 27.7797 112.899 26.8091 111.788 24.66ZM118.246 17.5192C118.246 14.4688 117.135 12.4583 115.121 12.4583C113.038 12.4583 111.788 14.4688 111.788 17.5192C111.788 20.5697 113.108 22.5802 115.121 22.5802C117.135 22.5802 118.246 20.639 118.246 17.5192Z" fill="black"/>
<path d="M125.883 17.658C125.883 11.6958 129.841 7.60547 135.535 7.60547C138.381 7.60547 140.534 8.50673 142.2 10.1013C144.422 12.2504 145.394 15.5782 145.325 19.4605H132.549C132.827 21.8177 133.938 23.0656 135.951 23.0656C137.132 23.0656 138.173 22.5109 138.59 21.263H145.047C143.936 25.6307 140.534 27.7798 135.743 27.7798C129.841 27.7105 125.883 23.6895 125.883 17.658ZM132.549 15.6475H138.659C138.52 13.3597 137.27 12.1811 135.673 12.1811C133.799 12.1118 132.757 13.429 132.549 15.6475Z" fill="black"/>
<path d="M152.893 11.4183H153.032C154.42 8.78381 156.226 7.7439 158.517 7.7439C159.072 7.7439 159.42 7.81322 159.628 7.95188V13.7754H159.489C155.531 13.0821 153.24 14.954 153.24 19.2523V27.225H146.505V8.15986H152.893V11.4183Z" fill="black"/>
<path d="M160.322 27.2252H166.78C167.057 28.0571 167.891 28.8197 169.488 28.8197C171.64 28.8197 172.404 27.5025 172.404 25.492V24.1055H172.265C171.223 25.3534 169.765 26.2546 167.682 26.2546C163.586 26.2546 159.975 23.2042 159.975 17.242C159.975 11.7651 162.891 7.53613 167.335 7.53613C169.904 7.53613 171.432 8.57605 172.473 10.1706H172.612V8.09075H179V24.5908C179 27.6412 177.958 29.9983 176.362 31.3849C174.695 32.8408 172.334 33.4647 169.626 33.4647C164.488 33.534 160.947 31.4542 160.322 27.2252ZM172.682 16.9647C172.682 14.6076 171.571 12.6664 169.626 12.6664C167.752 12.6664 166.571 14.3303 166.571 16.9647C166.571 19.5298 167.752 21.3324 169.626 21.3324C171.501 21.3324 172.682 19.4605 172.682 16.9647Z" fill="black"/>
</svg>
