<svg width="30" height="30" viewBox="0 0 30 30" fill="none" xmlns="http://www.w3.org/2000/svg">
<path d="M13.5875 3.93336L13.3959 3.20824L13.5875 3.93336ZM16.4125 3.93336L16.2209 4.65848L16.4125 3.93336ZM4.22937 20.5038L4.95058 20.298L4.22937 20.5038ZM4.22497 13.6701L4.94618 13.8759L4.22497 13.6701ZM25.775 13.6701L26.4962 13.4643L25.775 13.6701ZM25.7706 20.5038L26.4918 20.7096L25.7706 20.5038ZM19.9911 25.7733L19.8491 25.0369L19.9911 25.7733ZM10.0089 25.7733L10.1509 25.0369L10.0089 25.7733ZM10.9662 8.20051L11.1082 8.93695L10.9662 8.20051ZM19.0338 8.20051L19.1758 7.46407L19.0338 8.20051ZM20.3757 8.45925L20.2337 9.19569H20.2337L20.3757 8.45925ZM25.6588 13.2628L24.9376 13.4686V13.4686L25.6588 13.2628ZM9.62426 8.45925L9.48227 7.72282L9.62426 8.45925ZM4.34121 13.2627L3.62 13.0569L3.62 13.0569L4.34121 13.2627ZM13.7791 4.65848C14.5789 4.44717 15.4211 4.44717 16.2209 4.65848L16.6041 3.20824C15.5532 2.93059 14.4468 2.93059 13.3959 3.20824L13.7791 4.65848ZM20.9713 8.82894C20.9713 6.18825 19.1737 3.88714 16.6041 3.20824L16.2209 4.65848C18.1444 5.16666 19.4713 6.88154 19.4713 8.82894H20.9713ZM10.5287 8.82894C10.5287 6.88153 11.8556 5.16666 13.7791 4.65848L13.3959 3.20824C10.8263 3.88714 9.02871 6.18825 9.02871 8.82894H10.5287ZM9.76625 9.19569L11.1082 8.93695L10.8242 7.46408L9.48227 7.72282L9.76625 9.19569ZM18.8918 8.93695L20.2337 9.19569L20.5177 7.72281L19.1758 7.46407L18.8918 8.93695ZM24.9376 13.4686L25.0538 13.8759L26.4962 13.4643L26.38 13.0569L24.9376 13.4686ZM4.94618 13.8759L5.06242 13.4686L3.62 13.0569L3.50376 13.4643L4.94618 13.8759ZM4.95058 20.298C4.35248 18.2021 4.34862 15.9699 4.94618 13.8759L3.50376 13.4643C2.82888 15.8292 2.83383 18.3466 3.50817 20.7096L4.95058 20.298ZM25.0538 13.8759C25.6514 15.9699 25.6475 18.2021 25.0494 20.298L26.4918 20.7096C27.1662 18.3466 27.1711 15.8292 26.4962 13.4643L25.0538 13.8759ZM19.8491 25.0369C16.6467 25.6544 13.3533 25.6544 10.1509 25.0369L9.86689 26.5098C13.2569 27.1634 16.7431 27.1634 20.1331 26.5098L19.8491 25.0369ZM11.1082 8.93695C13.6784 8.44139 16.3216 8.44139 18.8918 8.93695L19.1758 7.46407C16.418 6.93235 13.582 6.93235 10.8242 7.46408L11.1082 8.93695ZM10.1509 25.0369C7.65175 24.5551 5.63848 22.7085 4.95058 20.298L3.50817 20.7096C4.35239 23.6679 6.81648 25.9216 9.86689 26.5098L10.1509 25.0369ZM20.1331 26.5098C23.1835 25.9216 25.6476 23.6679 26.4918 20.7096L25.0494 20.298C24.3615 22.7085 22.3483 24.5551 19.8491 25.0369L20.1331 26.5098ZM20.2337 9.19569C22.4993 9.63251 24.3154 11.2885 24.9376 13.4686L26.38 13.0569C25.6003 10.3246 23.33 8.26504 20.5177 7.72281L20.2337 9.19569ZM9.48227 7.72282C6.67004 8.26504 4.39975 10.3246 3.62 13.0569L5.06242 13.4686C5.68456 11.2885 7.50068 9.63251 9.76625 9.19569L9.48227 7.72282ZM4.29723 14.5638C11.1979 17.1163 18.8021 17.1163 25.7028 14.5638L25.1824 13.157C18.6175 15.5853 11.3825 15.5853 4.81761 13.157L4.29723 14.5638Z" fill="#0054F7"/>
<path d="M10 13.125V17.5" stroke="#0054F7" stroke-width="1.5" stroke-linecap="round"/>
<path d="M20 13.125V17.5" stroke="#0054F7" stroke-width="1.5" stroke-linecap="round"/>
</svg>
