<svg width="30" height="30" viewBox="0 0 30 30" fill="none" xmlns="http://www.w3.org/2000/svg">
<path d="M4.33973 16.9431L5.06017 16.7346L4.33973 16.9431ZM4.33973 8.63317L3.61929 8.42469H3.61929L4.33973 8.63317ZM25.6603 8.63318L26.3807 8.42469V8.42469L25.6603 8.63318ZM25.6603 16.943L24.9398 16.7346L24.9398 16.7346L25.6603 16.943ZM21.0185 21.2594L20.8784 20.5226L21.0185 21.2594ZM8.98153 21.2594L9.12162 20.5226L8.98153 21.2594ZM8.98152 4.3168L8.84143 3.58L8.98152 4.3168ZM21.0185 4.3168L21.1586 3.58L21.0185 4.3168ZM4.40006 17.1516L3.67962 17.36H3.67962L4.40006 17.1516ZM25.5999 17.1515L26.3204 17.36V17.36L25.5999 17.1515ZM25.5999 8.42467L24.8795 8.63315V8.63315L25.5999 8.42467ZM4.40006 8.42467L5.1205 8.63315L4.40006 8.42467ZM15.75 22.4037C15.75 21.9895 15.4142 21.6537 15 21.6537C14.5858 21.6537 14.25 21.9895 14.25 22.4037H15.75ZM14.25 26.25C14.25 26.6642 14.5858 27 15 27C15.4142 27 15.75 26.6642 15.75 26.25H14.25ZM11.7048 25.5C11.2906 25.5 10.9548 25.8358 10.9548 26.25C10.9548 26.6642 11.2906 27 11.7048 27V25.5ZM18.2952 27C18.7094 27 19.0452 26.6642 19.0452 26.25C19.0452 25.8358 18.7094 25.5 18.2952 25.5V27ZM24.8795 8.63315L24.9398 8.84166L26.3807 8.42469L26.3204 8.21618L24.8795 8.63315ZM24.9398 16.7346L24.8795 16.9431L26.3204 17.36L26.3807 17.1515L24.9398 16.7346ZM5.1205 16.9431L5.06017 16.7346L3.61929 17.1515L3.67962 17.36L5.1205 16.9431ZM5.06017 8.84165L5.1205 8.63315L3.67962 8.21618L3.61929 8.42469L5.06017 8.84165ZM5.06017 16.7346C4.31328 14.1536 4.31328 11.4226 5.06017 8.84165L3.61929 8.42469C2.79357 11.278 2.79357 14.2982 3.61929 17.1515L5.06017 16.7346ZM24.9398 8.84166C25.6867 11.4226 25.6867 14.1536 24.9398 16.7346L26.3807 17.1515C27.2064 14.2982 27.2064 11.278 26.3807 8.42469L24.9398 8.84166ZM20.8784 20.5226C16.9962 21.2608 13.0038 21.2608 9.12162 20.5226L8.84143 21.9962C12.9087 22.7696 17.0913 22.7696 21.1586 21.9962L20.8784 20.5226ZM9.12162 5.0536C13.0038 4.31547 16.9962 4.31547 20.8784 5.0536L21.1586 3.58C17.0913 2.80667 12.9087 2.80667 8.84143 3.58L9.12162 5.0536ZM9.12162 20.5226C7.18863 20.1551 5.64739 18.7638 5.1205 16.9431L3.67962 17.36C4.36845 19.7404 6.37096 21.5265 8.84143 21.9962L9.12162 20.5226ZM21.1586 21.9962C23.629 21.5265 25.6316 19.7404 26.3204 17.36L24.8795 16.9431C24.3526 18.7638 22.8114 20.1551 20.8784 20.5226L21.1586 21.9962ZM20.8784 5.0536C22.8114 5.42113 24.3526 6.81243 24.8795 8.63315L26.3204 8.21619C25.6316 5.83586 23.629 4.04973 21.1586 3.58L20.8784 5.0536ZM8.84143 3.58C6.37096 4.04973 4.36845 5.83586 3.67962 8.21618L5.1205 8.63315C5.64739 6.81243 7.18863 5.42113 9.12162 5.0536L8.84143 3.58ZM14.25 22.4037V26.25H15.75V22.4037H14.25ZM11.7048 27H18.2952V25.5H11.7048V27Z" fill="#0054F7"/>
<path d="M10 14.0625L12.7731 11.8787C13.1489 11.5827 13.3368 11.4347 13.5446 11.4611C13.7524 11.4875 13.8973 11.6778 14.1872 12.0583L15.8128 14.1917C16.1027 14.5722 16.2476 14.7625 16.4554 14.7889C16.6632 14.8153 16.8511 14.6673 17.2269 14.3713L20 12.1875" stroke="#0054F7" stroke-width="1.5" stroke-linecap="round"/>
</svg>
